<?xml version="1.0" encoding="UTF-8" standalone="no"?><svg xmlns="http://www.w3.org/2000/svg" xmlns:xlink="http://www.w3.org/1999/xlink" contentScriptType="application/ecmascript" contentStyleType="text/css" height="530px" preserveAspectRatio="none" style="width:850px;height:530px;" version="1.1" viewBox="0 0 850 530" width="850px" zoomAndPan="magnify"><defs><filter height="300%" id="faoybuhatr6r3" width="300%" x="-1" y="-1"><feGaussianBlur result="blurOut" stdDeviation="2.0"/><feColorMatrix in="blurOut" result="blurOut2" type="matrix" values="0 0 0 0 0 0 0 0 0 0 0 0 0 0 0 0 0 0 .4 0"/><feOffset dx="4.0" dy="4.0" in="blurOut2" result="blurOut3"/><feBlend in="SourceGraphic" in2="blurOut3" mode="normal"/></filter></defs><g><!--cluster VM2--><rect fill="#FFFFFF" filter="url(#faoybuhatr6r3)" height="406" style="stroke: #000000; stroke-width: 1.5;" width="723" x="22" y="113"/><rect fill="#FFFFFF" height="10" style="stroke: #000000; stroke-width: 1.5;" width="15" x="725" y="118"/><rect fill="#FFFFFF" height="2" style="stroke: #000000; stroke-width: 1.5;" width="4" x="723" y="120"/><rect fill="#FFFFFF" height="2" style="stroke: #000000; stroke-width: 1.5;" width="4" x="723" y="124"/><text fill="#000000" font-family="sans-serif" font-size="14" font-weight="bold" lengthAdjust="spacingAndGlyphs" textLength="121" x="323" y="138.9951">Virtual Machine</text><text fill="#000000" font-family="sans-serif" font-size="14" font-weight="bold" lengthAdjust="spacingAndGlyphs" textLength="55" x="356" y="155.292">docker</text><!--cluster docker2--><rect fill="#FFFFFF" filter="url(#faoybuhatr6r3)" height="206" style="stroke: #000000; stroke-width: 1.5;" width="675" x="46" y="172"/><rect fill="#FFFFFF" height="10" style="stroke: #000000; stroke-width: 1.5;" width="15" x="701" y="177"/><rect fill="#FFFFFF" height="2" style="stroke: #000000; stroke-width: 1.5;" width="4" x="699" y="179"/><rect fill="#FFFFFF" height="2" style="stroke: #000000; stroke-width: 1.5;" width="4" x="699" y="183"/><text fill="#000000" font-family="sans-serif" font-size="14" font-weight="bold" lengthAdjust="spacingAndGlyphs" textLength="56" x="355.5" y="197.9951">Docker</text><!--entity disk2--><path d="M427,451 C427,441 469,441 469,441 C469,441 511,441 511,451 L511,492.5938 C511,502.5938 469,502.5938 469,502.5938 C469,502.5938 427,502.5938 427,492.5938 L427,451 " fill="#F8F8F8" filter="url(#faoybuhatr6r3)" style="stroke: #000000; stroke-width: 1.5;"/><path d="M427,451 C427,461 469,461 469,461 C469,461 511,461 511,451 " fill="none" style="stroke: #000000; stroke-width: 1.5;"/><text fill="#000000" font-family="sans-serif" font-size="14" lengthAdjust="spacingAndGlyphs" textLength="64" x="437" y="477.9951">Managed</text><text fill="#000000" font-family="sans-serif" font-size="14" lengthAdjust="spacingAndGlyphs" textLength="30" x="454" y="494.292">Disk</text><!--entity drone_server--><rect fill="#F8F8F8" filter="url(#faoybuhatr6r3)" height="39.2969" style="stroke: #000000; stroke-width: 1.5;" width="188" x="375" y="323"/><polygon fill="#F8F8F8" points="546,328,546,342,558,342,558,334,552,328,546,328" style="stroke: #000000; stroke-width: 1.5;"/><line style="stroke: #000000; stroke-width: 1.5;" x1="552" x2="552" y1="328" y2="334"/><line style="stroke: #000000; stroke-width: 1.5;" x1="558" x2="552" y1="334" y2="334"/><text fill="#000000" font-family="sans-serif" font-size="14" lengthAdjust="spacingAndGlyphs" textLength="158" x="385" y="348.9951">drone/drone:1.0.0-rc.6</text><!--entity drone_agent--><rect fill="#F8F8F8" filter="url(#faoybuhatr6r3)" height="39.2969" style="stroke: #000000; stroke-width: 1.5;" width="187" x="62.5" y="207"/><polygon fill="#F8F8F8" points="232.5,212,232.5,226,244.5,226,244.5,218,238.5,212,232.5,212" style="stroke: #000000; stroke-width: 1.5;"/><line style="stroke: #000000; stroke-width: 1.5;" x1="238.5" x2="238.5" y1="212" y2="218"/><line style="stroke: #000000; stroke-width: 1.5;" x1="244.5" x2="238.5" y1="218" y2="218"/><text fill="#000000" font-family="sans-serif" font-size="14" lengthAdjust="spacingAndGlyphs" textLength="157" x="72.5" y="232.9951">drone/agent:1.0.0-rc.6</text><!--entity traefik_build--><rect fill="#F8F8F8" filter="url(#faoybuhatr6r3)" height="39.2969" style="stroke: #000000; stroke-width: 1.5;" width="115" x="589.5" y="207"/><polygon fill="#F8F8F8" points="687.5,212,687.5,226,699.5,226,699.5,218,693.5,212,687.5,212" style="stroke: #000000; stroke-width: 1.5;"/><line style="stroke: #000000; stroke-width: 1.5;" x1="693.5" x2="693.5" y1="212" y2="218"/><line style="stroke: #000000; stroke-width: 1.5;" x1="699.5" x2="693.5" y1="218" y2="218"/><text fill="#000000" font-family="sans-serif" font-size="14" lengthAdjust="spacingAndGlyphs" textLength="85" x="599.5" y="232.9951">traefik:latest</text><!--entity docker--><rect fill="#F8F8F8" filter="url(#faoybuhatr6r3)" height="39.2969" style="stroke: #000000; stroke-width: 1.5;" width="139" x="284.5" y="207"/><polygon fill="#F8F8F8" points="406.5,212,406.5,226,418.5,226,418.5,218,412.5,212,406.5,212" style="stroke: #000000; stroke-width: 1.5;"/><line style="stroke: #000000; stroke-width: 1.5;" x1="412.5" x2="412.5" y1="212" y2="218"/><line style="stroke: #000000; stroke-width: 1.5;" x1="418.5" x2="412.5" y1="218" y2="218"/><text fill="#000000" font-family="sans-serif" font-size="14" lengthAdjust="spacingAndGlyphs" textLength="109" x="294.5" y="232.9951">docker daemon</text><!--entity SSL_traefik--><ellipse cx="536" cy="37" fill="#F8F8F8" filter="url(#faoybuhatr6r3)" rx="8" ry="8" style="stroke: #383838; stroke-width: 2.0;"/><text fill="#000000" font-family="sans-serif" font-size="14" lengthAdjust="spacingAndGlyphs" textLength="124" x="445" y="66.9951">Traefik dashboard</text><text fill="#000000" font-family="sans-serif" font-size="14" font-style="italic" lengthAdjust="spacingAndGlyphs" textLength="54" x="573" y="66.9951">:80,443</text><!--entity SSL_drone--><ellipse cx="758" cy="37" fill="#F8F8F8" filter="url(#faoybuhatr6r3)" rx="8" ry="8" style="stroke: #383838; stroke-width: 2.0;"/><text fill="#000000" font-family="sans-serif" font-size="14" lengthAdjust="spacingAndGlyphs" textLength="103" x="677.5" y="66.9951">Drone Website</text><text fill="#000000" font-family="sans-serif" font-size="14" font-style="italic" lengthAdjust="spacingAndGlyphs" textLength="54" x="784.5" y="66.9951">:80,443</text><!--link drone_server to disk2--><path d="M469,362.04 C469,382.621 469,416.156 469,440.5935 " fill="none" id="drone_server-disk2" style="stroke: #383838; stroke-width: 1.0; stroke-dasharray: 7.0,7.0;"/><text fill="#000000" font-family="sans-serif" font-size="13" lengthAdjust="spacingAndGlyphs" textLength="177" x="470" y="407.0669">/data/volumes/drone-server</text><!--link docker to drone_server--><path d="M372.733,246.07 C394.118,267.269 428.894,301.742 450.275,322.938 " fill="none" id="docker-drone_server" style="stroke: #383838; stroke-width: 1.0; stroke-dasharray: 7.0,7.0;"/><text fill="#000000" font-family="sans-serif" font-size="13" lengthAdjust="spacingAndGlyphs" textLength="129" x="420" y="289.0669">/var/run/docker.sock</text><!--link traefik_build to drone_server--><path d="M623.445,246.198 C605.853,259.822 580.984,278.375 558,293 C541.224,303.675 521.917,314.376 505.583,322.999 " fill="none" id="traefik_build-drone_server" style="stroke: #383838; stroke-width: 1.0;"/><text fill="#000000" font-family="sans-serif" font-size="13" lengthAdjust="spacingAndGlyphs" textLength="32" x="585" y="289.0669">3000</text><!--link docker to traefik_build--><path d="M423.809,226.5 C474.249,226.5 541.582,226.5 589.057,226.5 " fill="none" id="docker-traefik_build" style="stroke: #383838; stroke-width: 1.0; stroke-dasharray: 7.0,7.0;"/><text fill="#000000" font-family="sans-serif" font-size="13" lengthAdjust="spacingAndGlyphs" textLength="129" x="442" y="219.5669">/var/run/docker.sock</text><!--link SSL_drone to traefik_build--><path d="M753.23,46.057 C736.715,73.954 681.685,166.911 657.998,206.923 " fill="none" id="SSL_drone-traefik_build" style="stroke: #383838; stroke-width: 1.0;"/><!--link SSL_traefik to traefik_build--><path d="M540.77,46.057 C557.285,73.954 612.315,166.911 636.002,206.923 " fill="none" id="SSL_traefik-traefik_build" style="stroke: #383838; stroke-width: 1.0;"/><!--
@startuml
skinparam monochrome true
skinparam defaulttextalignment center

component "Virtual Machine\ndocker" as VM2 {
  component Docker as docker2 {
    artifact "drone/drone:1.0.0-rc.6" as drone_server
    artifact "drone/agent:1.0.0-rc.6" as drone_agent
    artifact "traefik:latest" as traefik_build
    artifact "docker daemon" as docker
  }
  database "Managed\nDisk" as disk2
  drone_server .. disk2: /data/volumes/drone-server
  drone_server .left. docker: /var/run/docker.sock
  traefik_build - - drone_server: 3000
  traefik_build .left. docker: /var/run/docker.sock
}
interface "Traefik dashboard <i>:80,443" as SSL_traefik
interface "Drone Website <i>:80,443" as SSL_drone

SSL_drone -down- traefik_build
SSL_traefik -down- traefik_build
@enduml

PlantUML version 1.2019.03(Sun Mar 10 11:04:44 UTC 2019)
(GPL source distribution)
Java Runtime: Java(TM) SE Runtime Environment
JVM: Java HotSpot(TM) 64-Bit Server VM
Java Version: 1.7.0_25-b15
Operating System: Linux
Default Encoding: UTF-8
Language: en
Country: US
--></g></svg>