<?xml version="1.0" encoding="UTF-8" standalone="no"?><svg xmlns="http://www.w3.org/2000/svg" xmlns:xlink="http://www.w3.org/1999/xlink" contentScriptType="application/ecmascript" contentStyleType="text/css" height="408px" preserveAspectRatio="none" style="width:457px;height:408px;" version="1.1" viewBox="0 0 457 408" width="457px" zoomAndPan="magnify"><defs><filter height="300%" id="f8m5jqpr6nvza" width="300%" x="-1" y="-1"><feGaussianBlur result="blurOut" stdDeviation="2.0"/><feColorMatrix in="blurOut" result="blurOut2" type="matrix" values="0 0 0 0 0 0 0 0 0 0 0 0 0 0 0 0 0 0 .4 0"/><feOffset dx="4.0" dy="4.0" in="blurOut2" result="blurOut3"/><feBlend in="SourceGraphic" in2="blurOut3" mode="normal"/></filter></defs><g><!--cluster VNET--><rect fill="#FFFFFF" filter="url(#f8m5jqpr6nvza)" height="295" style="stroke: #000000; stroke-width: 1.5;" width="424" x="22" y="24"/><path d="M155,25 L155,33.2969 L145,43.2969 L22,43.2969 " fill="none" style="stroke: #000000; stroke-width: 1.5;"/><text fill="#000000" font-family="sans-serif" font-size="14" font-weight="bold" lengthAdjust="spacingAndGlyphs" textLength="123" x="25" y="37.9951">Virtual Network</text><!--cluster subnet--><rect fill="#FFFFFF" filter="url(#f8m5jqpr6nvza)" height="228" style="stroke: #000000; stroke-width: 1.5;" width="376" x="46" y="67"/><path d="M112,68 L112,76.2969 L102,86.2969 L46,86.2969 " fill="none" style="stroke: #000000; stroke-width: 1.5;"/><text fill="#000000" font-family="sans-serif" font-size="14" font-weight="bold" lengthAdjust="spacingAndGlyphs" textLength="56" x="49" y="80.9951">Subnet</text><!--cluster VM1--><rect fill="#FFFFFF" filter="url(#f8m5jqpr6nvza)" height="145" style="stroke: #000000; stroke-width: 1.5;" width="151" x="239" y="118"/><rect fill="#FFFFFF" height="10" style="stroke: #000000; stroke-width: 1.5;" width="15" x="370" y="123"/><rect fill="#FFFFFF" height="2" style="stroke: #000000; stroke-width: 1.5;" width="4" x="368" y="125"/><rect fill="#FFFFFF" height="2" style="stroke: #000000; stroke-width: 1.5;" width="4" x="368" y="129"/><text fill="#000000" font-family="sans-serif" font-size="14" font-weight="bold" lengthAdjust="spacingAndGlyphs" textLength="121" x="254" y="143.9951">Virtual Machine</text><text fill="#000000" font-family="sans-serif" font-size="14" font-weight="bold" lengthAdjust="spacingAndGlyphs" textLength="39" x="295" y="160.292">gitea</text><!--cluster VM2--><rect fill="#FFFFFF" filter="url(#f8m5jqpr6nvza)" height="129" style="stroke: #000000; stroke-width: 1.5;" width="137" x="70" y="126"/><rect fill="#FFFFFF" height="10" style="stroke: #000000; stroke-width: 1.5;" width="15" x="187" y="131"/><rect fill="#FFFFFF" height="2" style="stroke: #000000; stroke-width: 1.5;" width="4" x="185" y="133"/><rect fill="#FFFFFF" height="2" style="stroke: #000000; stroke-width: 1.5;" width="4" x="185" y="137"/><text fill="#000000" font-family="sans-serif" font-size="14" font-weight="bold" lengthAdjust="spacingAndGlyphs" textLength="121" x="78" y="151.9951">Virtual Machine</text><text fill="#000000" font-family="sans-serif" font-size="14" font-weight="bold" lengthAdjust="spacingAndGlyphs" textLength="47" x="115" y="168.292">drone</text><!--entity disk1--><path d="M282,187 C282,177 324,177 324,177 C324,177 366,177 366,187 L366,228.5938 C366,238.5938 324,238.5938 324,238.5938 C324,238.5938 282,238.5938 282,228.5938 L282,187 " fill="#F8F8F8" filter="url(#f8m5jqpr6nvza)" style="stroke: #000000; stroke-width: 1.5;"/><path d="M282,187 C282,197 324,197 324,197 C324,197 366,197 366,187 " fill="none" style="stroke: #000000; stroke-width: 1.5;"/><text fill="#000000" font-family="sans-serif" font-size="14" lengthAdjust="spacingAndGlyphs" textLength="64" x="292" y="213.9951">Managed</text><text fill="#000000" font-family="sans-serif" font-size="14" lengthAdjust="spacingAndGlyphs" textLength="30" x="309" y="230.292">Disk</text><!--entity disk2--><path d="M96,187 C96,177 138,177 138,177 C138,177 180,177 180,187 L180,228.5938 C180,238.5938 138,238.5938 138,238.5938 C138,238.5938 96,238.5938 96,228.5938 L96,187 " fill="#F8F8F8" filter="url(#f8m5jqpr6nvza)" style="stroke: #000000; stroke-width: 1.5;"/><path d="M96,187 C96,197 138,197 138,197 C138,197 180,197 180,187 " fill="none" style="stroke: #000000; stroke-width: 1.5;"/><text fill="#000000" font-family="sans-serif" font-size="14" lengthAdjust="spacingAndGlyphs" textLength="64" x="106" y="213.9951">Managed</text><text fill="#000000" font-family="sans-serif" font-size="14" lengthAdjust="spacingAndGlyphs" textLength="30" x="123" y="230.292">Disk</text><!--entity psql--><path d="M196.5,345 C196.5,335 247,335 247,335 C247,335 297.5,335 297.5,345 L297.5,386.5938 C297.5,396.5938 247,396.5938 247,396.5938 C247,396.5938 196.5,396.5938 196.5,386.5938 L196.5,345 " fill="#F8F8F8" filter="url(#f8m5jqpr6nvza)" style="stroke: #000000; stroke-width: 1.5;"/><path d="M196.5,345 C196.5,355 247,355 247,355 C247,355 297.5,355 297.5,345 " fill="none" style="stroke: #000000; stroke-width: 1.5;"/><text fill="#000000" font-family="sans-serif" font-size="14" lengthAdjust="spacingAndGlyphs" textLength="40" x="227" y="371.9951">Azure</text><text fill="#000000" font-family="sans-serif" font-size="14" lengthAdjust="spacingAndGlyphs" textLength="81" x="206.5" y="388.292">PostgreSQL</text><!--link VM1 to psql--><path d="M247,263.1618 C247,263.3664 247,263.5714 247,263.7765 C247,264.5972 247,265.4216 247,266.2493 C247,269.5604 247,272.9253 247,276.3176 C247,283.1024 247,289.997 247,296.7909 C247,310.3787 247,323.5638 247,334.6614 " fill="none" id="VM1-psql" style="stroke: #383838; stroke-width: 1.0;"/><!--
@startuml
skinparam monochrome true
skinparam defaulttextalignment center

frame "Virtual Network" as VNET {
  frame "Subnet" as subnet {
    component "Virtual Machine\ngitea" as VM1 {
      database "Managed\nDisk" as disk1
    }

    component "Virtual Machine\ndrone" as VM2 {
      database "Managed\nDisk" as disk2
    }
  }
}

database "Azure\nPostgreSQL" as psql
VM1 - - psql
@enduml

PlantUML version 1.2019.03(Sun Mar 10 11:04:44 UTC 2019)
(GPL source distribution)
Java Runtime: Java(TM) SE Runtime Environment
JVM: Java HotSpot(TM) 64-Bit Server VM
Java Version: 1.7.0_25-b15
Operating System: Linux
Default Encoding: UTF-8
Language: en
Country: US
--></g></svg>