<?xml version="1.0" standalone="no"?>
<!DOCTYPE svg PUBLIC "-//W3C//DTD SVG 20010904//EN"
 "http://www.w3.org/TR/2001/REC-SVG-20010904/DTD/svg10.dtd">
<svg version="1.0" xmlns="http://www.w3.org/2000/svg"
 width="540.000000pt" height="540.000000pt" viewBox="0 0 540.000000 540.000000"
 preserveAspectRatio="xMidYMid meet">
<metadata>
Created by potrace 1.11, written by Peter Selinger 2001-2013
</metadata>
<g transform="translate(0.000000,540.000000) scale(0.100000,-0.100000)"
fill="#000000" stroke="none">
<path d="M2518 5396 c-1 -2 -36 -6 -77 -10 -40 -3 -103 -11 -140 -17 -36 -6
-77 -12 -91 -14 -14 -2 -47 -9 -75 -15 -27 -7 -61 -14 -75 -16 -47 -9 -248
-71 -305 -94 -168 -70 -232 -99 -295 -132 -278 -150 -445 -273 -650 -478 -138
-138 -169 -171 -230 -250 -19 -25 -37 -47 -40 -50 -7 -7 -47 -63 -91 -130 -96
-145 -165 -276 -261 -500 -39 -89 -113 -338 -134 -450 -25 -131 -29 -160 -44
-300 -8 -78 -5 -459 4 -520 3 -19 8 -57 11 -85 7 -60 21 -137 42 -225 8 -36
17 -74 19 -84 6 -34 64 -220 79 -256 15 -36 37 -91 40 -100 34 -100 158 -331
255 -476 109 -162 165 -229 330 -394 152 -152 169 -167 295 -261 249 -186 500
-316 785 -407 106 -34 274 -77 334 -86 21 -4 48 -9 60 -11 21 -5 42 -8 186
-22 148 -15 486 -8 620 13 198 31 254 43 425 95 72 22 139 44 150 49 11 5 65
27 120 50 354 148 729 422 976 715 19 22 37 42 40 45 35 29 210 286 274 400
48 86 155 311 155 326 0 3 6 20 14 37 16 37 47 131 66 197 7 25 16 56 21 70 7
21 27 111 45 200 34 172 52 557 33 730 -16 154 -34 266 -56 355 -8 33 -17 68
-18 78 -2 10 -16 57 -30 105 -253 834 -887 1492 -1710 1775 -111 39 -316 93
-385 102 -25 3 -52 8 -60 10 -8 3 -37 7 -65 10 -27 3 -61 7 -75 11 -26 6 -465
15 -472 10z m412 -509 c19 -3 60 -8 90 -12 30 -3 75 -11 100 -17 25 -5 52 -11
60 -13 82 -18 120 -29 196 -53 492 -160 918 -495 1193 -936 107 -171 207 -404
254 -591 45 -174 46 -182 66 -370 9 -82 6 -369 -4 -440 -13 -94 -15 -111 -21
-138 -3 -16 -7 -38 -9 -50 -8 -50 -36 -157 -60 -232 -165 -511 -501 -937 -960
-1217 -175 -106 -431 -212 -613 -253 -215 -48 -312 -59 -522 -59 -183 -1 -289
9 -436 40 -216 44 -432 123 -613 223 -41 23 -75 41 -77 41 -4 0 -198 132 -204
139 -3 3 -27 24 -55 46 -41 32 -122 106 -179 161 -39 39 -110 119 -158 179
-241 303 -402 676 -454 1054 -3 25 -8 57 -11 71 -8 46 -10 354 -3 430 14 128
22 195 26 201 2 4 6 24 10 45 3 22 15 73 26 114 146 552 490 1018 973 1320 80
50 279 151 345 175 107 39 272 88 365 106 183 37 278 46 475 43 91 -2 181 -5
200 -7z"/>
<path d="M2695 4488 c-16 -34 -48 -106 -73 -158 -75 -161 -106 -228 -205 -440
-52 -113 -114 -245 -137 -295 -23 -49 -55 -118 -71 -152 -16 -35 -42 -91 -58
-125 -16 -35 -48 -103 -71 -153 -23 -49 -69 -148 -102 -220 -33 -71 -77 -166
-98 -210 -21 -44 -50 -107 -65 -140 -15 -33 -47 -100 -70 -150 -37 -77 -115
-244 -200 -430 -13 -27 -80 -171 -149 -320 -69 -148 -126 -273 -126 -277 0 -4
105 -8 234 -8 175 0 236 3 243 13 5 6 38 75 72 152 35 77 78 172 96 210 52
112 100 215 129 282 l28 62 633 -1 633 0 152 -351 c83 -194 155 -355 159 -360
4 -4 115 -6 247 -5 l240 3 -126 280 c-70 154 -204 453 -299 665 -95 212 -184
408 -196 435 -13 28 -82 181 -153 340 -71 160 -141 315 -155 345 -14 30 -63
141 -110 245 -47 105 -96 215 -110 245 -14 30 -73 163 -132 295 -146 326 -126
299 -160 223z m239 -1428 c114 -263 209 -486 210 -496 1 -15 -36 -16 -442 -18
-243 0 -442 0 -442 1 0 2 141 312 190 418 47 102 73 158 123 270 25 55 62 136
82 180 21 44 41 90 46 103 5 12 12 22 16 22 5 0 102 -216 217 -480z"/>
</g>
</svg>
