<svg xmlns="http://www.w3.org/2000/svg" xmlns:xlink="http://www.w3.org/1999/xlink" contentStyleType="text/css" data-diagram-type="ACTIVITY" height="612px" preserveAspectRatio="none" style="width:652px;height:612px;background:#FFFFFF;" version="1.1" viewBox="0 0 652 612" width="652px" zoomAndPan="magnify"><defs/><g><rect fill="#FFFFFF" fill-opacity="0.00000" height="20.9531" style="stroke:#FFFFFF00;stroke-width:1;" width="619.4507" x="15" y="12.7451"/><ellipse cx="94.1318" cy="48.6982" fill="#222222" rx="10" ry="10" style="stroke:#222222;stroke-width:1;"/><rect fill="#F1F1F1" height="33.9688" rx="12.5" ry="12.5" style="stroke:#181818;stroke-width:0.5;" width="124.1855" x="32.0391" y="78.6982"/><text fill="#000000" font-family="sans-serif" font-size="12" lengthAdjust="spacing" textLength="104.1855" x="42.0391" y="99.8369">modify LaTeX file</text><rect fill="#F1F1F1" height="33.9688" rx="12.5" ry="12.5" style="stroke:#181818;stroke-width:0.5;" width="119.5859" x="34.3389" y="132.667"/><text fill="#000000" font-family="sans-serif" font-size="12" lengthAdjust="spacing" textLength="99.5859" x="44.3389" y="153.8057">commit changes</text><rect fill="#F1F1F1" height="33.9688" rx="12.5" ry="12.5" style="stroke:#181818;stroke-width:0.5;" width="94.2734" x="46.9951" y="186.6357"/><text fill="#000000" font-family="sans-serif" font-size="12" lengthAdjust="spacing" textLength="20.1445" x="56.9951" y="207.7744">run</text><text fill="#000000" font-family="sans-serif" font-size="12" font-style="italic" lengthAdjust="spacing" textLength="50.3145" x="80.9541" y="207.7744">Makefile</text><rect fill="#F1F1F1" height="33.9688" rx="12.5" ry="12.5" style="stroke:#181818;stroke-width:0.5;" width="146.2637" x="21" y="240.6045"/><text fill="#000000" font-family="sans-serif" font-size="12" lengthAdjust="spacing" textLength="126.2637" x="31" y="261.7432">commit updated PDF</text><rect fill="#F1F1F1" height="33.9688" rx="12.5" ry="12.5" style="stroke:#181818;stroke-width:0.5;" width="103.3086" x="42.4775" y="294.5732"/><text fill="#000000" font-family="sans-serif" font-size="12" lengthAdjust="spacing" textLength="83.3086" x="52.4775" y="315.7119">push changes</text><line style="stroke:#000000;stroke-width:1.5;" x1="15" x2="15" y1="12.7451" y2="600.3857"/><rect fill="#F1F1F1" height="47.9375" rx="12.5" ry="12.5" style="stroke:#181818;stroke-width:0.5;" width="207.8105" x="177.2637" y="348.542"/><text fill="#000000" font-family="sans-serif" font-size="12" lengthAdjust="spacing" textLength="153.5391" x="187.2637" y="369.6807">generate static web page</text><text fill="#000000" font-family="sans-serif" font-size="12" lengthAdjust="spacing" textLength="187.8105" x="187.2637" y="383.6494">treating CV (PDF) as an artifact</text><rect fill="#F1F1F1" height="33.9688" rx="12.5" ry="12.5" style="stroke:#181818;stroke-width:0.5;" width="160.0449" x="201.1465" y="416.4795"/><text fill="#000000" font-family="sans-serif" font-size="12" lengthAdjust="spacing" textLength="140.0449" x="211.1465" y="437.6182">upload static web page</text><line style="stroke:#000000;stroke-width:1.5;" x1="171.2637" x2="171.2637" y1="12.7451" y2="600.3857"/><rect fill="#F1F1F1" height="33.9688" rx="12.5" ry="12.5" style="stroke:#181818;stroke-width:0.5;" width="127.7422" x="395.0742" y="470.4482"/><text fill="#000000" font-family="sans-serif" font-size="12" lengthAdjust="spacing" textLength="107.7422" x="405.0742" y="491.5869">provide web page</text><line style="stroke:#000000;stroke-width:1.5;" x1="389.0742" x2="389.0742" y1="12.7451" y2="600.3857"/><rect fill="#F1F1F1" height="33.9688" rx="12.5" ry="12.5" style="stroke:#181818;stroke-width:0.5;" width="95.7734" x="532.8164" y="524.417"/><text fill="#000000" font-family="sans-serif" font-size="12" lengthAdjust="spacing" textLength="75.7734" x="542.8164" y="545.5557">enjoy my CV</text><ellipse cx="580.7031" cy="589.3857" fill="#FFFFFF" fill-opacity="0.00000" rx="11" ry="11" style="stroke:#222222;stroke-width:1;"/><ellipse cx="580.7031" cy="589.3857" fill="#222222" rx="6" ry="6" style="stroke:#222222;stroke-width:1;"/><line style="stroke:#000000;stroke-width:1.5;" x1="526.8164" x2="526.8164" y1="12.7451" y2="600.3857"/><line style="stroke:#000000;stroke-width:1.5;" x1="632.5898" x2="632.5898" y1="12.7451" y2="600.3857"/><line style="stroke:#181818;stroke-width:1;" x1="94.1318" x2="94.1318" y1="58.6982" y2="78.6982"/><polygon fill="#181818" points="90.1318,68.6982,94.1318,78.6982,98.1318,68.6982,94.1318,72.6982" style="stroke:#181818;stroke-width:1;"/><line style="stroke:#181818;stroke-width:1;" x1="94.1318" x2="94.1318" y1="112.667" y2="132.667"/><polygon fill="#181818" points="90.1318,122.667,94.1318,132.667,98.1318,122.667,94.1318,126.667" style="stroke:#181818;stroke-width:1;"/><line style="stroke:#181818;stroke-width:1;" x1="94.1318" x2="94.1318" y1="166.6357" y2="186.6357"/><polygon fill="#181818" points="90.1318,176.6357,94.1318,186.6357,98.1318,176.6357,94.1318,180.6357" style="stroke:#181818;stroke-width:1;"/><line style="stroke:#181818;stroke-width:1;" x1="94.1318" x2="94.1318" y1="220.6045" y2="240.6045"/><polygon fill="#181818" points="90.1318,230.6045,94.1318,240.6045,98.1318,230.6045,94.1318,234.6045" style="stroke:#181818;stroke-width:1;"/><line style="stroke:#181818;stroke-width:1;" x1="94.1318" x2="94.1318" y1="274.5732" y2="294.5732"/><polygon fill="#181818" points="90.1318,284.5732,94.1318,294.5732,98.1318,284.5732,94.1318,288.5732" style="stroke:#181818;stroke-width:1;"/><line style="stroke:#181818;stroke-width:1;" x1="281.1689" x2="281.1689" y1="396.4795" y2="416.4795"/><polygon fill="#181818" points="277.1689,406.4795,281.1689,416.4795,285.1689,406.4795,281.1689,410.4795" style="stroke:#181818;stroke-width:1;"/><line style="stroke:#181818;stroke-width:1;" x1="580.7031" x2="580.7031" y1="558.3857" y2="578.3857"/><polygon fill="#181818" points="576.7031,568.3857,580.7031,578.3857,584.7031,568.3857,580.7031,572.3857" style="stroke:#181818;stroke-width:1;"/><line style="stroke:#181818;stroke-width:1;" x1="94.1318" x2="94.1318" y1="328.542" y2="333.542"/><line style="stroke:#181818;stroke-width:1;" x1="94.1318" x2="281.1689" y1="333.542" y2="333.542"/><line style="stroke:#181818;stroke-width:1;" x1="281.1689" x2="281.1689" y1="333.542" y2="348.542"/><polygon fill="#181818" points="277.1689,338.542,281.1689,348.542,285.1689,338.542,281.1689,342.542" style="stroke:#181818;stroke-width:1;"/><line style="stroke:#181818;stroke-width:1;" x1="281.1689" x2="281.1689" y1="450.4482" y2="455.4482"/><line style="stroke:#181818;stroke-width:1;" x1="281.1689" x2="458.9453" y1="455.4482" y2="455.4482"/><line style="stroke:#181818;stroke-width:1;" x1="458.9453" x2="458.9453" y1="455.4482" y2="470.4482"/><polygon fill="#181818" points="454.9453,460.4482,458.9453,470.4482,462.9453,460.4482,458.9453,464.4482" style="stroke:#181818;stroke-width:1;"/><line style="stroke:#181818;stroke-width:1;" x1="458.9453" x2="458.9453" y1="504.417" y2="509.417"/><line style="stroke:#181818;stroke-width:1;" x1="458.9453" x2="580.7031" y1="509.417" y2="509.417"/><line style="stroke:#181818;stroke-width:1;" x1="580.7031" x2="580.7031" y1="509.417" y2="524.417"/><polygon fill="#181818" points="576.7031,514.417,580.7031,524.417,584.7031,514.417,580.7031,518.417" style="stroke:#181818;stroke-width:1;"/><text fill="#000000" font-family="sans-serif" font-size="18" lengthAdjust="spacing" textLength="90.2197" x="48.022" y="29.4531">Local (git)</text><text fill="#000000" font-family="sans-serif" font-size="18" lengthAdjust="spacing" textLength="122.3174" x="219.0103" y="29.4531">Build pipeline</text><text fill="#000000" font-family="sans-serif" font-size="18" lengthAdjust="spacing" textLength="105.0469" x="405.4219" y="29.4531">Web Server</text><text fill="#000000" font-family="sans-serif" font-size="18" lengthAdjust="spacing" textLength="61.585" x="548.9106" y="29.4531">Viewer</text><!--SRC=[NO_DJWCn38JlUGeVsrVO8Ww0E1K92LIuciIRDKtYo4bQhRGFZyM5dvirdfdFRcSk5HKpP2dY5vLCq7MGsuxYCS4kSjzlhdNKxgOiWUSLZlXAxp1peeERlEJC7Vo29L8pGKU16xvzmZFzjOmQi5E0vuT74-jeoqzgknkS0bIkbBZGvgP8XTJyOEpE7gxq0HKZkQvaGebmVuATTUq16s01kv1dzDswHqs2uN_IA6yslf1UI8rGLIuSwFV-n7Jztb7vb1NoQf23VI_r2m00]--></g></svg>