<?xml version="1.0" encoding="UTF-8" standalone="no"?><svg xmlns="http://www.w3.org/2000/svg" xmlns:xlink="http://www.w3.org/1999/xlink" contentScriptType="application/ecmascript" contentStyleType="text/css" height="604px" preserveAspectRatio="none" style="width:690px;height:604px;" version="1.1" viewBox="0 0 690 604" width="690px" zoomAndPan="magnify"><defs><filter height="300%" id="f1lcr3u8ka2pq0" width="300%" x="-1" y="-1"><feGaussianBlur result="blurOut" stdDeviation="2.0"/><feColorMatrix in="blurOut" result="blurOut2" type="matrix" values="0 0 0 0 0 0 0 0 0 0 0 0 0 0 0 0 0 0 .4 0"/><feOffset dx="4.0" dy="4.0" in="blurOut2" result="blurOut3"/><feBlend in="SourceGraphic" in2="blurOut3" mode="normal"/></filter></defs><g><ellipse cx="93" cy="44.2959" fill="#000000" filter="url(#f1lcr3u8ka2pq0)" rx="10" ry="10" style="stroke: none; stroke-width: 1.0;"/><rect fill="#F8F8F8" filter="url(#f1lcr3u8ka2pq0)" height="33.5938" rx="12.5" ry="12.5" style="stroke: #383838; stroke-width: 1.5;" width="139" x="23.5" y="74.2959"/><text fill="#000000" font-family="sans-serif" font-size="12" lengthAdjust="spacingAndGlyphs" textLength="119" x="33.5" y="94.2861">modify LaTeX file</text><rect fill="#F8F8F8" filter="url(#f1lcr3u8ka2pq0)" height="33.5938" rx="12.5" ry="12.5" style="stroke: #383838; stroke-width: 1.5;" width="118" x="34" y="127.8896"/><text fill="#000000" font-family="sans-serif" font-size="12" lengthAdjust="spacingAndGlyphs" textLength="98" x="44" y="147.8799">commit changes</text><rect fill="#F8F8F8" filter="url(#f1lcr3u8ka2pq0)" height="33.7988" rx="12.5" ry="12.5" style="stroke: #383838; stroke-width: 1.5;" width="89" x="48.5" y="181.4834"/><text fill="#000000" font-family="sans-serif" font-size="12" lengthAdjust="spacingAndGlyphs" textLength="21" x="58.5" y="201.6787">run</text><text fill="#000000" font-family="sans-serif" font-size="12" font-style="italic" lengthAdjust="spacingAndGlyphs" textLength="41" x="86.5" y="202.6865">Makefile</text><rect fill="#F8F8F8" filter="url(#f1lcr3u8ka2pq0)" height="33.5938" rx="12.5" ry="12.5" style="stroke: #383838; stroke-width: 1.5;" width="146" x="20" y="235.2822"/><text fill="#000000" font-family="sans-serif" font-size="12" lengthAdjust="spacingAndGlyphs" textLength="126" x="30" y="255.2725">commit updated PDF</text><rect fill="#F8F8F8" filter="url(#f1lcr3u8ka2pq0)" height="33.5938" rx="12.5" ry="12.5" style="stroke: #383838; stroke-width: 1.5;" width="104" x="41" y="288.876"/><text fill="#000000" font-family="sans-serif" font-size="12" lengthAdjust="spacingAndGlyphs" textLength="84" x="51" y="308.8662">push changes</text><rect fill="#F8F8F8" filter="url(#f1lcr3u8ka2pq0)" height="47.1875" rx="12.5" ry="12.5" style="stroke: #383838; stroke-width: 1.5;" width="244" x="176" y="342.4697"/><text fill="#000000" font-family="sans-serif" font-size="12" lengthAdjust="spacingAndGlyphs" textLength="168" x="186" y="362.46">generate static web page</text><text fill="#000000" font-family="sans-serif" font-size="12" lengthAdjust="spacingAndGlyphs" textLength="224" x="186" y="376.0537">treating CV (PDF) as an artifact</text><rect fill="#F8F8F8" filter="url(#f1lcr3u8ka2pq0)" height="33.5938" rx="12.5" ry="12.5" style="stroke: #383838; stroke-width: 1.5;" width="174" x="211" y="409.6572"/><text fill="#000000" font-family="sans-serif" font-size="12" lengthAdjust="spacingAndGlyphs" textLength="154" x="221" y="429.6475">upload static web page</text><rect fill="#F8F8F8" filter="url(#f1lcr3u8ka2pq0)" height="33.5938" rx="12.5" ry="12.5" style="stroke: #383838; stroke-width: 1.5;" width="132" x="430" y="463.251"/><text fill="#000000" font-family="sans-serif" font-size="12" lengthAdjust="spacingAndGlyphs" textLength="112" x="440" y="483.2412">provide web page</text><rect fill="#F8F8F8" filter="url(#f1lcr3u8ka2pq0)" height="33.5938" rx="12.5" ry="12.5" style="stroke: #383838; stroke-width: 1.5;" width="97" x="572" y="516.8447"/><text fill="#000000" font-family="sans-serif" font-size="12" lengthAdjust="spacingAndGlyphs" textLength="77" x="582" y="536.835">enjoy my CV</text><ellipse cx="620.5" cy="581.4385" fill="#FFFFFF" filter="url(#f1lcr3u8ka2pq0)" rx="11" ry="11" style="stroke: #000000; stroke-width: 1.0;"/><ellipse cx="620.5" cy="581.4385" fill="#000000" rx="6" ry="6" style="stroke: #7F7F7F; stroke-width: 1.0;"/><line style="stroke: #383838; stroke-width: 1.5;" x1="93" x2="93" y1="54.2959" y2="74.2959"/><polygon fill="#383838" points="89,64.2959,93,74.2959,97,64.2959,93,68.2959" style="stroke: #383838; stroke-width: 1.0;"/><line style="stroke: #383838; stroke-width: 1.5;" x1="93" x2="93" y1="107.8896" y2="127.8896"/><polygon fill="#383838" points="89,117.8896,93,127.8896,97,117.8896,93,121.8896" style="stroke: #383838; stroke-width: 1.0;"/><line style="stroke: #383838; stroke-width: 1.5;" x1="93" x2="93" y1="161.4834" y2="181.4834"/><polygon fill="#383838" points="89,171.4834,93,181.4834,97,171.4834,93,175.4834" style="stroke: #383838; stroke-width: 1.0;"/><line style="stroke: #383838; stroke-width: 1.5;" x1="93" x2="93" y1="215.2822" y2="235.2822"/><polygon fill="#383838" points="89,225.2822,93,235.2822,97,225.2822,93,229.2822" style="stroke: #383838; stroke-width: 1.0;"/><line style="stroke: #383838; stroke-width: 1.5;" x1="93" x2="93" y1="268.876" y2="288.876"/><polygon fill="#383838" points="89,278.876,93,288.876,97,278.876,93,282.876" style="stroke: #383838; stroke-width: 1.0;"/><line style="stroke: #383838; stroke-width: 1.5;" x1="298" x2="298" y1="389.6572" y2="409.6572"/><polygon fill="#383838" points="294,399.6572,298,409.6572,302,399.6572,298,403.6572" style="stroke: #383838; stroke-width: 1.0;"/><line style="stroke: #383838; stroke-width: 1.5;" x1="620.5" x2="620.5" y1="550.4385" y2="570.4385"/><polygon fill="#383838" points="616.5,560.4385,620.5,570.4385,624.5,560.4385,620.5,564.4385" style="stroke: #383838; stroke-width: 1.0;"/><line style="stroke: #383838; stroke-width: 1.5;" x1="93" x2="93" y1="322.4697" y2="327.4697"/><line style="stroke: #383838; stroke-width: 1.5;" x1="93" x2="298" y1="327.4697" y2="327.4697"/><line style="stroke: #383838; stroke-width: 1.5;" x1="298" x2="298" y1="327.4697" y2="342.4697"/><polygon fill="#383838" points="294,332.4697,298,342.4697,302,332.4697,298,336.4697" style="stroke: #383838; stroke-width: 1.0;"/><line style="stroke: #383838; stroke-width: 1.5;" x1="298" x2="298" y1="443.251" y2="448.251"/><line style="stroke: #383838; stroke-width: 1.5;" x1="298" x2="496" y1="448.251" y2="448.251"/><line style="stroke: #383838; stroke-width: 1.5;" x1="496" x2="496" y1="448.251" y2="463.251"/><polygon fill="#383838" points="492,453.251,496,463.251,500,453.251,496,457.251" style="stroke: #383838; stroke-width: 1.0;"/><line style="stroke: #383838; stroke-width: 1.5;" x1="496" x2="496" y1="496.8447" y2="501.8447"/><line style="stroke: #383838; stroke-width: 1.5;" x1="496" x2="620.5" y1="501.8447" y2="501.8447"/><line style="stroke: #383838; stroke-width: 1.5;" x1="620.5" x2="620.5" y1="501.8447" y2="516.8447"/><polygon fill="#383838" points="616.5,506.8447,620.5,516.8447,624.5,506.8447,620.5,510.8447" style="stroke: #383838; stroke-width: 1.0;"/><text fill="#000000" font-family="sans-serif" font-size="18" lengthAdjust="spacingAndGlyphs" textLength="121" x="32" y="28.8906">Local (git)</text><text fill="#000000" font-family="sans-serif" font-size="18" lengthAdjust="spacingAndGlyphs" textLength="154" x="220.5" y="28.8906">Build pipeline</text><text fill="#000000" font-family="sans-serif" font-size="18" lengthAdjust="spacingAndGlyphs" textLength="110" x="440.5" y="28.8906">Web Server</text><text fill="#000000" font-family="sans-serif" font-size="18" lengthAdjust="spacingAndGlyphs" textLength="66" x="587" y="28.8906">Viewer</text><line style="stroke: #000000; stroke-width: 2.0;" x1="10" x2="10" y1="13.9053" y2="592.4385"/><line style="stroke: #000000; stroke-width: 2.0;" x1="171" x2="171" y1="13.9053" y2="592.4385"/><line style="stroke: #000000; stroke-width: 2.0;" x1="425" x2="425" y1="13.9053" y2="592.4385"/><line style="stroke: #000000; stroke-width: 2.0;" x1="567" x2="567" y1="13.9053" y2="592.4385"/><line style="stroke: #000000; stroke-width: 2.0;" x1="678" x2="678" y1="13.9053" y2="592.4385"/><!--
@startuml
skinparam monochrome true
|Local (git)|
start
:modify LaTeX file;
:commit changes;
:run <i>Makefile;
:commit updated PDF;
:push changes;
|Build pipeline|
:generate static web page
treating CV (PDF) as an artifact;
:upload static web page;
|Web Server|
:provide web page;
|Viewer|
:enjoy my CV;
stop
@enduml

PlantUML version 1.2019.06(Fri May 24 17:10:25 GMT 2019)
(APACHE source distribution)
Java Runtime: OpenJDK Runtime Environment
JVM: OpenJDK 64-Bit Server VM
Java Version: 1.8.0_212-b04
Operating System: Linux
OS Version: 4.15.0-1047-azure
Default Encoding: UTF-8
Language: en
Country: US
--></g></svg>