<?xml version="1.0" encoding="UTF-8" standalone="no"?><svg xmlns="http://www.w3.org/2000/svg" xmlns:xlink="http://www.w3.org/1999/xlink" contentScriptType="application/ecmascript" contentStyleType="text/css" height="607px" preserveAspectRatio="none" style="width:635px;height:607px;" version="1.1" viewBox="0 0 635 607" width="635px" zoomAndPan="magnify"><defs><filter height="300%" id="f1churguu3uw14" width="300%" x="-1" y="-1"><feGaussianBlur result="blurOut" stdDeviation="2.0"/><feColorMatrix in="blurOut" result="blurOut2" type="matrix" values="0 0 0 0 0 0 0 0 0 0 0 0 0 0 0 0 0 0 .4 0"/><feOffset dx="4.0" dy="4.0" in="blurOut2" result="blurOut3"/><feBlend in="SourceGraphic" in2="blurOut3" mode="normal"/></filter></defs><g><ellipse cx="81.5" cy="43.6982" fill="#000000" filter="url(#f1churguu3uw14)" rx="10" ry="10" style="stroke: none; stroke-width: 1.0;"/><rect fill="#F8F8F8" filter="url(#f1churguu3uw14)" height="33.9688" rx="12.5" ry="12.5" style="stroke: #383838; stroke-width: 1.5;" width="122" x="20.5" y="73.6982"/><text fill="#000000" font-family="sans-serif" font-size="12" lengthAdjust="spacingAndGlyphs" textLength="102" x="30.5" y="94.8369">modify LaTeX file</text><rect fill="#F8F8F8" filter="url(#f1churguu3uw14)" height="33.9688" rx="12.5" ry="12.5" style="stroke: #383838; stroke-width: 1.5;" width="123" x="20" y="127.667"/><text fill="#000000" font-family="sans-serif" font-size="12" lengthAdjust="spacingAndGlyphs" textLength="103" x="30" y="148.8057">commit changes</text><rect fill="#F8F8F8" filter="url(#f1churguu3uw14)" height="33.9688" rx="12.5" ry="12.5" style="stroke: #383838; stroke-width: 1.5;" width="109" x="27" y="181.6357"/><text fill="#000000" font-family="sans-serif" font-size="12" lengthAdjust="spacingAndGlyphs" textLength="89" x="37" y="202.7744">push changes</text><rect fill="#F8F8F8" filter="url(#f1churguu3uw14)" height="33.9688" rx="12.5" ry="12.5" style="stroke: #383838; stroke-width: 1.5;" width="123" x="199.5" y="235.6045"/><text fill="#000000" font-family="sans-serif" font-size="12" lengthAdjust="spacingAndGlyphs" textLength="103" x="209.5" y="256.7432">inject git version</text><rect fill="#F8F8F8" filter="url(#f1churguu3uw14)" height="33.9688" rx="12.5" ry="12.5" style="stroke: #383838; stroke-width: 1.5;" width="106" x="208" y="289.5732"/><text fill="#000000" font-family="sans-serif" font-size="12" lengthAdjust="spacingAndGlyphs" textLength="86" x="218" y="310.7119">generate PDF</text><rect fill="#F8F8F8" filter="url(#f1churguu3uw14)" height="47.9375" rx="12.5" ry="12.5" style="stroke: #383838; stroke-width: 1.5;" width="216" x="153" y="343.542"/><text fill="#000000" font-family="sans-serif" font-size="12" lengthAdjust="spacingAndGlyphs" textLength="162" x="163" y="364.6807">generate static web page</text><text fill="#000000" font-family="sans-serif" font-size="12" lengthAdjust="spacingAndGlyphs" textLength="196" x="163" y="378.6494">treating CV (PDF) as an artifact</text><rect fill="#F8F8F8" filter="url(#f1churguu3uw14)" height="33.9688" rx="12.5" ry="12.5" style="stroke: #383838; stroke-width: 1.5;" width="167" x="177.5" y="411.4795"/><text fill="#000000" font-family="sans-serif" font-size="12" lengthAdjust="spacingAndGlyphs" textLength="147" x="187.5" y="432.6182">upload static web page</text><rect fill="#F8F8F8" filter="url(#f1churguu3uw14)" height="33.9688" rx="12.5" ry="12.5" style="stroke: #383838; stroke-width: 1.5;" width="131" x="379" y="465.4482"/><text fill="#000000" font-family="sans-serif" font-size="12" lengthAdjust="spacingAndGlyphs" textLength="111" x="389" y="486.5869">provide web page</text><rect fill="#F8F8F8" filter="url(#f1churguu3uw14)" height="33.9688" rx="12.5" ry="12.5" style="stroke: #383838; stroke-width: 1.5;" width="94" x="520" y="519.417"/><text fill="#000000" font-family="sans-serif" font-size="12" lengthAdjust="spacingAndGlyphs" textLength="74" x="530" y="540.5557">enjoy my CV</text><ellipse cx="567" cy="584.3857" fill="#FFFFFF" filter="url(#f1churguu3uw14)" rx="11" ry="11" style="stroke: #000000; stroke-width: 1.0;"/><ellipse cx="567" cy="584.3857" fill="#000000" rx="6" ry="6" style="stroke: #7F7F7F; stroke-width: 1.0;"/><line style="stroke: #383838; stroke-width: 1.5;" x1="81.5" x2="81.5" y1="53.6982" y2="73.6982"/><polygon fill="#383838" points="77.5,63.6982,81.5,73.6982,85.5,63.6982,81.5,67.6982" style="stroke: #383838; stroke-width: 1.0;"/><line style="stroke: #383838; stroke-width: 1.5;" x1="81.5" x2="81.5" y1="107.667" y2="127.667"/><polygon fill="#383838" points="77.5,117.667,81.5,127.667,85.5,117.667,81.5,121.667" style="stroke: #383838; stroke-width: 1.0;"/><line style="stroke: #383838; stroke-width: 1.5;" x1="81.5" x2="81.5" y1="161.6357" y2="181.6357"/><polygon fill="#383838" points="77.5,171.6357,81.5,181.6357,85.5,171.6357,81.5,175.6357" style="stroke: #383838; stroke-width: 1.0;"/><line style="stroke: #383838; stroke-width: 1.5;" x1="261" x2="261" y1="269.5732" y2="289.5732"/><polygon fill="#383838" points="257,279.5732,261,289.5732,265,279.5732,261,283.5732" style="stroke: #383838; stroke-width: 1.0;"/><line style="stroke: #383838; stroke-width: 1.5;" x1="261" x2="261" y1="323.542" y2="343.542"/><polygon fill="#383838" points="257,333.542,261,343.542,265,333.542,261,337.542" style="stroke: #383838; stroke-width: 1.0;"/><line style="stroke: #383838; stroke-width: 1.5;" x1="261" x2="261" y1="391.4795" y2="411.4795"/><polygon fill="#383838" points="257,401.4795,261,411.4795,265,401.4795,261,405.4795" style="stroke: #383838; stroke-width: 1.0;"/><line style="stroke: #383838; stroke-width: 1.5;" x1="567" x2="567" y1="553.3857" y2="573.3857"/><polygon fill="#383838" points="563,563.3857,567,573.3857,571,563.3857,567,567.3857" style="stroke: #383838; stroke-width: 1.0;"/><line style="stroke: #383838; stroke-width: 1.5;" x1="81.5" x2="81.5" y1="215.6045" y2="220.6045"/><line style="stroke: #383838; stroke-width: 1.5;" x1="81.5" x2="261" y1="220.6045" y2="220.6045"/><line style="stroke: #383838; stroke-width: 1.5;" x1="261" x2="261" y1="220.6045" y2="235.6045"/><polygon fill="#383838" points="257,225.6045,261,235.6045,265,225.6045,261,229.6045" style="stroke: #383838; stroke-width: 1.0;"/><line style="stroke: #383838; stroke-width: 1.5;" x1="261" x2="261" y1="445.4482" y2="450.4482"/><line style="stroke: #383838; stroke-width: 1.5;" x1="261" x2="444.5" y1="450.4482" y2="450.4482"/><line style="stroke: #383838; stroke-width: 1.5;" x1="444.5" x2="444.5" y1="450.4482" y2="465.4482"/><polygon fill="#383838" points="440.5,455.4482,444.5,465.4482,448.5,455.4482,444.5,459.4482" style="stroke: #383838; stroke-width: 1.0;"/><line style="stroke: #383838; stroke-width: 1.5;" x1="444.5" x2="444.5" y1="499.417" y2="504.417"/><line style="stroke: #383838; stroke-width: 1.5;" x1="444.5" x2="567" y1="504.417" y2="504.417"/><line style="stroke: #383838; stroke-width: 1.5;" x1="567" x2="567" y1="504.417" y2="519.417"/><polygon fill="#383838" points="563,509.417,567,519.417,571,509.417,567,513.417" style="stroke: #383838; stroke-width: 1.0;"/><text fill="#000000" font-family="sans-serif" font-size="18" lengthAdjust="spacingAndGlyphs" textLength="88" x="37" y="29.4531">Local (git)</text><text fill="#000000" font-family="sans-serif" font-size="18" lengthAdjust="spacingAndGlyphs" textLength="120" x="200.5" y="29.4531">Build pipeline</text><text fill="#000000" font-family="sans-serif" font-size="18" lengthAdjust="spacingAndGlyphs" textLength="107" x="390.5" y="29.4531">Web Server</text><text fill="#000000" font-family="sans-serif" font-size="18" lengthAdjust="spacingAndGlyphs" textLength="63" x="535" y="29.4531">Viewer</text><line style="stroke: #000000; stroke-width: 2.0;" x1="10" x2="10" y1="12.7451" y2="595.3857"/><line style="stroke: #000000; stroke-width: 2.0;" x1="148" x2="148" y1="12.7451" y2="595.3857"/><line style="stroke: #000000; stroke-width: 2.0;" x1="374" x2="374" y1="12.7451" y2="595.3857"/><line style="stroke: #000000; stroke-width: 2.0;" x1="515" x2="515" y1="12.7451" y2="595.3857"/><line style="stroke: #000000; stroke-width: 2.0;" x1="623" x2="623" y1="12.7451" y2="595.3857"/><!--
@startuml
skinparam monochrome true
|Local (git)|
start
:modify LaTeX file;
:commit changes;
:push changes;
|Build pipeline|
:inject git version;
:generate PDF;
:generate static web page
treating CV (PDF) as an artifact;
:upload static web page;
|Web Server|
:provide web page;
|Viewer|
:enjoy my CV;
stop
@enduml

PlantUML version 1.2019.06(Fri May 24 17:10:25 GMT 2019)
(APACHE source distribution)
Java Runtime: OpenJDK Runtime Environment
JVM: OpenJDK 64-Bit Server VM
Java Version: 1.8.0_212-b04
Operating System: Linux
OS Version: 4.15.0-1059-azure
Default Encoding: UTF-8
Language: en
Country: US
--></g></svg>