<?xml version="1.0" encoding="UTF-8" standalone="no"?><svg xmlns="http://www.w3.org/2000/svg" xmlns:xlink="http://www.w3.org/1999/xlink" contentScriptType="application/ecmascript" contentStyleType="text/css" height="607px" preserveAspectRatio="none" style="width:662px;height:607px;" version="1.1" viewBox="0 0 662 607" width="662px" zoomAndPan="magnify"><defs><filter height="300%" id="f1lcr3u8ka2pq0" width="300%" x="-1" y="-1"><feGaussianBlur result="blurOut" stdDeviation="2.0"/><feColorMatrix in="blurOut" result="blurOut2" type="matrix" values="0 0 0 0 0 0 0 0 0 0 0 0 0 0 0 0 0 0 .4 0"/><feOffset dx="4.0" dy="4.0" in="blurOut2" result="blurOut3"/><feBlend in="SourceGraphic" in2="blurOut3" mode="normal"/></filter></defs><g><ellipse cx="95" cy="43.6982" fill="#000000" filter="url(#f1lcr3u8ka2pq0)" rx="10" ry="10" style="stroke: none; stroke-width: 1.0;"/><rect fill="#F8F8F8" filter="url(#f1lcr3u8ka2pq0)" height="33.9688" rx="12.5" ry="12.5" style="stroke: #383838; stroke-width: 1.5;" width="122" x="34" y="73.6982"/><text fill="#000000" font-family="sans-serif" font-size="12" lengthAdjust="spacingAndGlyphs" textLength="102" x="44" y="94.8369">modify LaTeX file</text><rect fill="#F8F8F8" filter="url(#f1lcr3u8ka2pq0)" height="33.9688" rx="12.5" ry="12.5" style="stroke: #383838; stroke-width: 1.5;" width="123" x="33.5" y="127.667"/><text fill="#000000" font-family="sans-serif" font-size="12" lengthAdjust="spacingAndGlyphs" textLength="103" x="43.5" y="148.8057">commit changes</text><rect fill="#F8F8F8" filter="url(#f1lcr3u8ka2pq0)" height="33.9688" rx="12.5" ry="12.5" style="stroke: #383838; stroke-width: 1.5;" width="96" x="47" y="181.6357"/><text fill="#000000" font-family="sans-serif" font-size="12" lengthAdjust="spacingAndGlyphs" textLength="21" x="57" y="202.7744">run</text><text fill="#000000" font-family="sans-serif" font-size="12" font-style="italic" lengthAdjust="spacingAndGlyphs" textLength="51" x="82" y="202.7744">Makefile</text><rect fill="#F8F8F8" filter="url(#f1lcr3u8ka2pq0)" height="33.9688" rx="12.5" ry="12.5" style="stroke: #383838; stroke-width: 1.5;" width="150" x="20" y="235.6045"/><text fill="#000000" font-family="sans-serif" font-size="12" lengthAdjust="spacingAndGlyphs" textLength="130" x="30" y="256.7432">commit updated PDF</text><rect fill="#F8F8F8" filter="url(#f1lcr3u8ka2pq0)" height="33.9688" rx="12.5" ry="12.5" style="stroke: #383838; stroke-width: 1.5;" width="109" x="40.5" y="289.5732"/><text fill="#000000" font-family="sans-serif" font-size="12" lengthAdjust="spacingAndGlyphs" textLength="89" x="50.5" y="310.7119">push changes</text><rect fill="#F8F8F8" filter="url(#f1lcr3u8ka2pq0)" height="47.9375" rx="12.5" ry="12.5" style="stroke: #383838; stroke-width: 1.5;" width="216" x="180" y="343.542"/><text fill="#000000" font-family="sans-serif" font-size="12" lengthAdjust="spacingAndGlyphs" textLength="162" x="190" y="364.6807">generate static web page</text><text fill="#000000" font-family="sans-serif" font-size="12" lengthAdjust="spacingAndGlyphs" textLength="196" x="190" y="378.6494">treating CV (PDF) as an artifact</text><rect fill="#F8F8F8" filter="url(#f1lcr3u8ka2pq0)" height="33.9688" rx="12.5" ry="12.5" style="stroke: #383838; stroke-width: 1.5;" width="167" x="204.5" y="411.4795"/><text fill="#000000" font-family="sans-serif" font-size="12" lengthAdjust="spacingAndGlyphs" textLength="147" x="214.5" y="432.6182">upload static web page</text><rect fill="#F8F8F8" filter="url(#f1lcr3u8ka2pq0)" height="33.9688" rx="12.5" ry="12.5" style="stroke: #383838; stroke-width: 1.5;" width="131" x="406" y="465.4482"/><text fill="#000000" font-family="sans-serif" font-size="12" lengthAdjust="spacingAndGlyphs" textLength="111" x="416" y="486.5869">provide web page</text><rect fill="#F8F8F8" filter="url(#f1lcr3u8ka2pq0)" height="33.9688" rx="12.5" ry="12.5" style="stroke: #383838; stroke-width: 1.5;" width="94" x="547" y="519.417"/><text fill="#000000" font-family="sans-serif" font-size="12" lengthAdjust="spacingAndGlyphs" textLength="74" x="557" y="540.5557">enjoy my CV</text><ellipse cx="594" cy="584.3857" fill="#FFFFFF" filter="url(#f1lcr3u8ka2pq0)" rx="11" ry="11" style="stroke: #000000; stroke-width: 1.0;"/><ellipse cx="594" cy="584.3857" fill="#000000" rx="6" ry="6" style="stroke: #7F7F7F; stroke-width: 1.0;"/><line style="stroke: #383838; stroke-width: 1.5;" x1="95" x2="95" y1="53.6982" y2="73.6982"/><polygon fill="#383838" points="91,63.6982,95,73.6982,99,63.6982,95,67.6982" style="stroke: #383838; stroke-width: 1.0;"/><line style="stroke: #383838; stroke-width: 1.5;" x1="95" x2="95" y1="107.667" y2="127.667"/><polygon fill="#383838" points="91,117.667,95,127.667,99,117.667,95,121.667" style="stroke: #383838; stroke-width: 1.0;"/><line style="stroke: #383838; stroke-width: 1.5;" x1="95" x2="95" y1="161.6357" y2="181.6357"/><polygon fill="#383838" points="91,171.6357,95,181.6357,99,171.6357,95,175.6357" style="stroke: #383838; stroke-width: 1.0;"/><line style="stroke: #383838; stroke-width: 1.5;" x1="95" x2="95" y1="215.6045" y2="235.6045"/><polygon fill="#383838" points="91,225.6045,95,235.6045,99,225.6045,95,229.6045" style="stroke: #383838; stroke-width: 1.0;"/><line style="stroke: #383838; stroke-width: 1.5;" x1="95" x2="95" y1="269.5732" y2="289.5732"/><polygon fill="#383838" points="91,279.5732,95,289.5732,99,279.5732,95,283.5732" style="stroke: #383838; stroke-width: 1.0;"/><line style="stroke: #383838; stroke-width: 1.5;" x1="288" x2="288" y1="391.4795" y2="411.4795"/><polygon fill="#383838" points="284,401.4795,288,411.4795,292,401.4795,288,405.4795" style="stroke: #383838; stroke-width: 1.0;"/><line style="stroke: #383838; stroke-width: 1.5;" x1="594" x2="594" y1="553.3857" y2="573.3857"/><polygon fill="#383838" points="590,563.3857,594,573.3857,598,563.3857,594,567.3857" style="stroke: #383838; stroke-width: 1.0;"/><line style="stroke: #383838; stroke-width: 1.5;" x1="95" x2="95" y1="323.542" y2="328.542"/><line style="stroke: #383838; stroke-width: 1.5;" x1="95" x2="288" y1="328.542" y2="328.542"/><line style="stroke: #383838; stroke-width: 1.5;" x1="288" x2="288" y1="328.542" y2="343.542"/><polygon fill="#383838" points="284,333.542,288,343.542,292,333.542,288,337.542" style="stroke: #383838; stroke-width: 1.0;"/><line style="stroke: #383838; stroke-width: 1.5;" x1="288" x2="288" y1="445.4482" y2="450.4482"/><line style="stroke: #383838; stroke-width: 1.5;" x1="288" x2="471.5" y1="450.4482" y2="450.4482"/><line style="stroke: #383838; stroke-width: 1.5;" x1="471.5" x2="471.5" y1="450.4482" y2="465.4482"/><polygon fill="#383838" points="467.5,455.4482,471.5,465.4482,475.5,455.4482,471.5,459.4482" style="stroke: #383838; stroke-width: 1.0;"/><line style="stroke: #383838; stroke-width: 1.5;" x1="471.5" x2="471.5" y1="499.417" y2="504.417"/><line style="stroke: #383838; stroke-width: 1.5;" x1="471.5" x2="594" y1="504.417" y2="504.417"/><line style="stroke: #383838; stroke-width: 1.5;" x1="594" x2="594" y1="504.417" y2="519.417"/><polygon fill="#383838" points="590,509.417,594,519.417,598,509.417,594,513.417" style="stroke: #383838; stroke-width: 1.0;"/><text fill="#000000" font-family="sans-serif" font-size="18" lengthAdjust="spacingAndGlyphs" textLength="88" x="50.5" y="29.4531">Local (git)</text><text fill="#000000" font-family="sans-serif" font-size="18" lengthAdjust="spacingAndGlyphs" textLength="120" x="227.5" y="29.4531">Build pipeline</text><text fill="#000000" font-family="sans-serif" font-size="18" lengthAdjust="spacingAndGlyphs" textLength="107" x="417.5" y="29.4531">Web Server</text><text fill="#000000" font-family="sans-serif" font-size="18" lengthAdjust="spacingAndGlyphs" textLength="63" x="562" y="29.4531">Viewer</text><line style="stroke: #000000; stroke-width: 2.0;" x1="10" x2="10" y1="12.7451" y2="595.3857"/><line style="stroke: #000000; stroke-width: 2.0;" x1="175" x2="175" y1="12.7451" y2="595.3857"/><line style="stroke: #000000; stroke-width: 2.0;" x1="401" x2="401" y1="12.7451" y2="595.3857"/><line style="stroke: #000000; stroke-width: 2.0;" x1="542" x2="542" y1="12.7451" y2="595.3857"/><line style="stroke: #000000; stroke-width: 2.0;" x1="650" x2="650" y1="12.7451" y2="595.3857"/><!--
@startuml
skinparam monochrome true
|Local (git)|
start
:modify LaTeX file;
:commit changes;
:run <i>Makefile;
:commit updated PDF;
:push changes;
|Build pipeline|
:generate static web page
treating CV (PDF) as an artifact;
:upload static web page;
|Web Server|
:provide web page;
|Viewer|
:enjoy my CV;
stop
@enduml

PlantUML version 1.2019.06(Fri May 24 17:10:25 GMT 2019)
(APACHE source distribution)
Java Runtime: OpenJDK Runtime Environment
JVM: OpenJDK 64-Bit Server VM
Java Version: 1.8.0_212-b04
Operating System: Linux
OS Version: 4.15.0-1064-azure
Default Encoding: UTF-8
Language: en
Country: US
--></g></svg>