<?xml version="1.0" encoding="UTF-8" standalone="no"?><svg xmlns="http://www.w3.org/2000/svg" xmlns:xlink="http://www.w3.org/1999/xlink" contentScriptType="application/ecmascript" contentStyleType="text/css" height="604px" preserveAspectRatio="none" style="width:683px;height:604px;" version="1.1" viewBox="0 0 683 604" width="683px" zoomAndPan="magnify"><defs><filter height="300%" id="f1churguu3uw14" width="300%" x="-1" y="-1"><feGaussianBlur result="blurOut" stdDeviation="2.0"/><feColorMatrix in="blurOut" result="blurOut2" type="matrix" values="0 0 0 0 0 0 0 0 0 0 0 0 0 0 0 0 0 0 .4 0"/><feOffset dx="4.0" dy="4.0" in="blurOut2" result="blurOut3"/><feBlend in="SourceGraphic" in2="blurOut3" mode="normal"/></filter></defs><g><ellipse cx="89.5" cy="44.2959" fill="#000000" filter="url(#f1churguu3uw14)" rx="10" ry="10" style="stroke: none; stroke-width: 1.0;"/><rect fill="#F8F8F8" filter="url(#f1churguu3uw14)" height="33.5938" rx="12.5" ry="12.5" style="stroke: #383838; stroke-width: 1.5;" width="139" x="20" y="74.2959"/><text fill="#000000" font-family="sans-serif" font-size="12" lengthAdjust="spacingAndGlyphs" textLength="119" x="30" y="94.2861">modify LaTeX file</text><rect fill="#F8F8F8" filter="url(#f1churguu3uw14)" height="33.5938" rx="12.5" ry="12.5" style="stroke: #383838; stroke-width: 1.5;" width="118" x="30.5" y="127.8896"/><text fill="#000000" font-family="sans-serif" font-size="12" lengthAdjust="spacingAndGlyphs" textLength="98" x="40.5" y="147.8799">commit changes</text><rect fill="#F8F8F8" filter="url(#f1churguu3uw14)" height="33.5938" rx="12.5" ry="12.5" style="stroke: #383838; stroke-width: 1.5;" width="104" x="37.5" y="181.4834"/><text fill="#000000" font-family="sans-serif" font-size="12" lengthAdjust="spacingAndGlyphs" textLength="84" x="47.5" y="201.4736">push changes</text><rect fill="#F8F8F8" filter="url(#f1churguu3uw14)" height="33.5938" rx="12.5" ry="12.5" style="stroke: #383838; stroke-width: 1.5;" width="146" x="218" y="235.0771"/><text fill="#000000" font-family="sans-serif" font-size="12" lengthAdjust="spacingAndGlyphs" textLength="126" x="228" y="255.0674">inject git version</text><rect fill="#F8F8F8" filter="url(#f1churguu3uw14)" height="33.5938" rx="12.5" ry="12.5" style="stroke: #383838; stroke-width: 1.5;" width="104" x="239" y="288.6709"/><text fill="#000000" font-family="sans-serif" font-size="12" lengthAdjust="spacingAndGlyphs" textLength="84" x="249" y="308.6611">generate PDF</text><rect fill="#F8F8F8" filter="url(#f1churguu3uw14)" height="47.1875" rx="12.5" ry="12.5" style="stroke: #383838; stroke-width: 1.5;" width="244" x="169" y="342.2646"/><text fill="#000000" font-family="sans-serif" font-size="12" lengthAdjust="spacingAndGlyphs" textLength="168" x="179" y="362.2549">generate static web page</text><text fill="#000000" font-family="sans-serif" font-size="12" lengthAdjust="spacingAndGlyphs" textLength="224" x="179" y="375.8486">treating CV (PDF) as an artifact</text><rect fill="#F8F8F8" filter="url(#f1churguu3uw14)" height="33.5938" rx="12.5" ry="12.5" style="stroke: #383838; stroke-width: 1.5;" width="174" x="204" y="409.4521"/><text fill="#000000" font-family="sans-serif" font-size="12" lengthAdjust="spacingAndGlyphs" textLength="154" x="214" y="429.4424">upload static web page</text><rect fill="#F8F8F8" filter="url(#f1churguu3uw14)" height="33.5938" rx="12.5" ry="12.5" style="stroke: #383838; stroke-width: 1.5;" width="132" x="423" y="463.0459"/><text fill="#000000" font-family="sans-serif" font-size="12" lengthAdjust="spacingAndGlyphs" textLength="112" x="433" y="483.0361">provide web page</text><rect fill="#F8F8F8" filter="url(#f1churguu3uw14)" height="33.5938" rx="12.5" ry="12.5" style="stroke: #383838; stroke-width: 1.5;" width="97" x="565" y="516.6396"/><text fill="#000000" font-family="sans-serif" font-size="12" lengthAdjust="spacingAndGlyphs" textLength="77" x="575" y="536.6299">enjoy my CV</text><ellipse cx="613.5" cy="581.2334" fill="#FFFFFF" filter="url(#f1churguu3uw14)" rx="11" ry="11" style="stroke: #000000; stroke-width: 1.0;"/><ellipse cx="613.5" cy="581.2334" fill="#000000" rx="6" ry="6" style="stroke: #7F7F7F; stroke-width: 1.0;"/><line style="stroke: #383838; stroke-width: 1.5;" x1="89.5" x2="89.5" y1="54.2959" y2="74.2959"/><polygon fill="#383838" points="85.5,64.2959,89.5,74.2959,93.5,64.2959,89.5,68.2959" style="stroke: #383838; stroke-width: 1.0;"/><line style="stroke: #383838; stroke-width: 1.5;" x1="89.5" x2="89.5" y1="107.8896" y2="127.8896"/><polygon fill="#383838" points="85.5,117.8896,89.5,127.8896,93.5,117.8896,89.5,121.8896" style="stroke: #383838; stroke-width: 1.0;"/><line style="stroke: #383838; stroke-width: 1.5;" x1="89.5" x2="89.5" y1="161.4834" y2="181.4834"/><polygon fill="#383838" points="85.5,171.4834,89.5,181.4834,93.5,171.4834,89.5,175.4834" style="stroke: #383838; stroke-width: 1.0;"/><line style="stroke: #383838; stroke-width: 1.5;" x1="291" x2="291" y1="268.6709" y2="288.6709"/><polygon fill="#383838" points="287,278.6709,291,288.6709,295,278.6709,291,282.6709" style="stroke: #383838; stroke-width: 1.0;"/><line style="stroke: #383838; stroke-width: 1.5;" x1="291" x2="291" y1="322.2646" y2="342.2646"/><polygon fill="#383838" points="287,332.2646,291,342.2646,295,332.2646,291,336.2646" style="stroke: #383838; stroke-width: 1.0;"/><line style="stroke: #383838; stroke-width: 1.5;" x1="291" x2="291" y1="389.4521" y2="409.4521"/><polygon fill="#383838" points="287,399.4521,291,409.4521,295,399.4521,291,403.4521" style="stroke: #383838; stroke-width: 1.0;"/><line style="stroke: #383838; stroke-width: 1.5;" x1="613.5" x2="613.5" y1="550.2334" y2="570.2334"/><polygon fill="#383838" points="609.5,560.2334,613.5,570.2334,617.5,560.2334,613.5,564.2334" style="stroke: #383838; stroke-width: 1.0;"/><line style="stroke: #383838; stroke-width: 1.5;" x1="89.5" x2="89.5" y1="215.0771" y2="220.0771"/><line style="stroke: #383838; stroke-width: 1.5;" x1="89.5" x2="291" y1="220.0771" y2="220.0771"/><line style="stroke: #383838; stroke-width: 1.5;" x1="291" x2="291" y1="220.0771" y2="235.0771"/><polygon fill="#383838" points="287,225.0771,291,235.0771,295,225.0771,291,229.0771" style="stroke: #383838; stroke-width: 1.0;"/><line style="stroke: #383838; stroke-width: 1.5;" x1="291" x2="291" y1="443.0459" y2="448.0459"/><line style="stroke: #383838; stroke-width: 1.5;" x1="291" x2="489" y1="448.0459" y2="448.0459"/><line style="stroke: #383838; stroke-width: 1.5;" x1="489" x2="489" y1="448.0459" y2="463.0459"/><polygon fill="#383838" points="485,453.0459,489,463.0459,493,453.0459,489,457.0459" style="stroke: #383838; stroke-width: 1.0;"/><line style="stroke: #383838; stroke-width: 1.5;" x1="489" x2="489" y1="496.6396" y2="501.6396"/><line style="stroke: #383838; stroke-width: 1.5;" x1="489" x2="613.5" y1="501.6396" y2="501.6396"/><line style="stroke: #383838; stroke-width: 1.5;" x1="613.5" x2="613.5" y1="501.6396" y2="516.6396"/><polygon fill="#383838" points="609.5,506.6396,613.5,516.6396,617.5,506.6396,613.5,510.6396" style="stroke: #383838; stroke-width: 1.0;"/><text fill="#000000" font-family="sans-serif" font-size="18" lengthAdjust="spacingAndGlyphs" textLength="121" x="28.5" y="28.8906">Local (git)</text><text fill="#000000" font-family="sans-serif" font-size="18" lengthAdjust="spacingAndGlyphs" textLength="154" x="213.5" y="28.8906">Build pipeline</text><text fill="#000000" font-family="sans-serif" font-size="18" lengthAdjust="spacingAndGlyphs" textLength="110" x="433.5" y="28.8906">Web Server</text><text fill="#000000" font-family="sans-serif" font-size="18" lengthAdjust="spacingAndGlyphs" textLength="66" x="580" y="28.8906">Viewer</text><line style="stroke: #000000; stroke-width: 2.0;" x1="10" x2="10" y1="13.9053" y2="592.2334"/><line style="stroke: #000000; stroke-width: 2.0;" x1="164" x2="164" y1="13.9053" y2="592.2334"/><line style="stroke: #000000; stroke-width: 2.0;" x1="418" x2="418" y1="13.9053" y2="592.2334"/><line style="stroke: #000000; stroke-width: 2.0;" x1="560" x2="560" y1="13.9053" y2="592.2334"/><line style="stroke: #000000; stroke-width: 2.0;" x1="671" x2="671" y1="13.9053" y2="592.2334"/><!--
@startuml
skinparam monochrome true
|Local (git)|
start
:modify LaTeX file;
:commit changes;
:push changes;
|Build pipeline|
:inject git version;
:generate PDF;
:generate static web page
treating CV (PDF) as an artifact;
:upload static web page;
|Web Server|
:provide web page;
|Viewer|
:enjoy my CV;
stop
@enduml

PlantUML version 1.2019.06(Fri May 24 17:10:25 GMT 2019)
(APACHE source distribution)
Java Runtime: OpenJDK Runtime Environment
JVM: OpenJDK 64-Bit Server VM
Java Version: 1.8.0_212-b04
Operating System: Linux
OS Version: 4.15.0-1055-azure
Default Encoding: UTF-8
Language: en
Country: US
--></g></svg>