<?xml version="1.0" encoding="UTF-8" standalone="no"?><svg xmlns="http://www.w3.org/2000/svg" xmlns:xlink="http://www.w3.org/1999/xlink" contentScriptType="application/ecmascript" contentStyleType="text/css" height="116px" preserveAspectRatio="none" style="width:572px;height:116px;" version="1.1" viewBox="0 0 572 116" width="572px" zoomAndPan="magnify"><defs><filter height="300%" id="fdj5z3y4rxvr0" width="300%" x="-1" y="-1"><feGaussianBlur result="blurOut" stdDeviation="2.0"/><feColorMatrix in="blurOut" result="blurOut2" type="matrix" values="0 0 0 0 0 0 0 0 0 0 0 0 0 0 0 0 0 0 .4 0"/><feOffset dx="4.0" dy="4.0" in="blurOut2" result="blurOut3"/><feBlend in="SourceGraphic" in2="blurOut3" mode="normal"/></filter></defs><g><!--entity 1--><rect fill="#FFFFFF" filter="url(#fdj5z3y4rxvr0)" height="15.3333" style="stroke: #000000; stroke-width: 1.5;" width="31.3333" x="259.5" y="8"/><path d="M276.3333,12.1667 L276.3333,14.5 L270.5,14.5 L270.5,15.6667 L276.3333,15.6667 L276.3333,18 L279.8333,15.0472 L276.3333,12.1667 " fill="#000000" style="stroke: ; stroke-width: 0.0; stroke-dasharray: ;"/><!--entity 2--><rect fill="#FFFFFF" filter="url(#fdj5z3y4rxvr0)" height="22.29" style="stroke: #000000; stroke-width: 1.5;" width="52" x="6" y="83"/><text fill="#000000" font-family="sans-serif" font-size="14" lengthAdjust="spacingAndGlyphs" textLength="32" x="16" y="99.3027">--|&gt;</text><!--entity 3--><rect fill="#FFFFFF" filter="url(#fdj5z3y4rxvr0)" height="22.29" style="stroke: #000000; stroke-width: 1.5;" width="43" x="93.5" y="83"/><text fill="#000000" font-family="sans-serif" font-size="14" lengthAdjust="spacingAndGlyphs" textLength="23" x="103.5" y="99.3027">--*</text><!--entity 4--><rect fill="#FFFFFF" filter="url(#fdj5z3y4rxvr0)" height="22.29" style="stroke: #000000; stroke-width: 1.5;" width="45" x="171.5" y="83"/><text fill="#000000" font-family="sans-serif" font-size="14" lengthAdjust="spacingAndGlyphs" textLength="25" x="181.5" y="99.3027">--o</text><!--entity 8--><rect fill="#FFFFFF" filter="url(#fdj5z3y4rxvr0)" height="22.29" style="stroke: #000000; stroke-width: 1.5;" width="47" x="251.5" y="83"/><text fill="#000000" font-family="sans-serif" font-size="14" lengthAdjust="spacingAndGlyphs" textLength="27" x="261.5" y="99.3027">--&gt;</text><!--entity 9--><rect fill="#FFFFFF" filter="url(#fdj5z3y4rxvr0)" height="22.29" style="stroke: #000000; stroke-width: 1.5;" width="58" x="334" y="83"/><text fill="#000000" font-family="sans-serif" font-size="14" lengthAdjust="spacingAndGlyphs" textLength="38" x="344" y="99.3027">--&gt;&gt;</text><!--entity 11--><rect fill="#FFFFFF" filter="url(#fdj5z3y4rxvr0)" height="22.29" style="stroke: #000000; stroke-width: 1.5;" width="54" x="427" y="83"/><text fill="#000000" font-family="sans-serif" font-size="14" lengthAdjust="spacingAndGlyphs" textLength="34" x="437" y="99.3027">*--&gt;</text><!--entity 12--><rect fill="#FFFFFF" filter="url(#fdj5z3y4rxvr0)" height="22.29" style="stroke: #000000; stroke-width: 1.5;" width="45" x="516.5" y="83"/><text fill="#000000" font-family="sans-serif" font-size="14" lengthAdjust="spacingAndGlyphs" textLength="25" x="526.5" y="99.3027">--#</text><!--link 1 to 2--><path d="M259.4296,20.5299 C223.2974,32.2023 132.6262,61.4932 77.301,79.3657 " fill="none" id="1-2" style="stroke: #383838; stroke-width: 1.0;"/><polygon fill="none" points="79.1986,86.1089,58.0152,85.5959,74.8949,72.7867,79.1986,86.1089" style="stroke: #383838; stroke-width: 1.0;"/><!--link 1 to 3--><path d="M259.6585,23.0269 C234.1625,35.5359 182.4961,60.8847 148.3168,77.6539 " fill="none" id="1-3" style="stroke: #383838; stroke-width: 1.0;"/><polygon fill="#383838" points="136.5965,83.4042,143.745,84.3525,147.3698,78.1187,140.2213,77.1703,136.5965,83.4042" style="stroke: #383838; stroke-width: 1.0;"/><!--link 1 to 4--><path d="M267.2334,23.0269 C255.363,34.531 232.287,56.8947 215.1969,73.4573 " fill="none" id="1-4" style="stroke: #383838; stroke-width: 1.0;"/><polygon fill="#FFFFFF" points="205.4831,82.8713,212.5755,81.5681,214.1003,74.52,207.008,75.8233,205.4831,82.8713" style="stroke: #383838; stroke-width: 1.0;"/><!--link 1 to 8--><path d="M275,23.0269 C275,35.5077 275,60.7706 275,77.5405 " fill="none" id="1-8" style="stroke: #383838; stroke-width: 1.0;"/><polygon fill="#383838" points="275,82.8713,279,73.8713,275,77.8713,271,73.8713,275,82.8713" style="stroke: #383838; stroke-width: 1.0;"/><!--link 1 to 9--><path d="M283.4378,23.0269 C297.429,35.5077 325.7492,60.7706 344.5486,77.5405 " fill="none" id="1-9" style="stroke: #383838; stroke-width: 1.0;"/><polygon fill="#383838" points="350.5245,82.8713,346.5517,75.3071,342.5576,79.7846,350.5245,82.8713" style="stroke: #383838; stroke-width: 1.0;"/><!--link 1 to 11--><path d="M302.9326,27.7498 C333.4893,41.1503 382.6238,62.6981 416.5162,77.5616 " fill="none" id="1-11" style="stroke: #383838; stroke-width: 1.0;"/><polygon fill="#383838" points="428.6889,82.8999,422.0532,75.622,424.1099,80.8918,418.8402,82.9485,428.6889,82.8999" style="stroke: #383838; stroke-width: 1.0;"/><line style="stroke: #383838; stroke-width: 1.0;" x1="424.1099" x2="416.7835" y1="80.8918" y2="77.6787"/><polygon fill="#383838" points="290.5719,22.329,294.4602,28.402,301.5615,27.1485,297.6732,21.0755,290.5719,22.329" style="stroke: #383838; stroke-width: 1.0;"/><!--link 1 to 12--><path d="M290.7238,20.1754 C334.148,33.0876 456.1523,69.3654 511.3088,85.7661 " fill="none" id="1-12" style="stroke: #383838; stroke-width: 1.0;"/><rect fill="#FFFFFF" height="10" style="stroke: #383838; stroke-width: 1.5;" width="10" x="511.1161" y="82.1955"/><!--
@startuml arrows
skinparam monochrome true
skinparam cardBackgroundColor white
card "<&arrow-right>" as 1
card "- -|>" as 2
1 - -|> 2
card "- -*" as 3
1 - -* 3
card "- -o" as 4
1 - -o 4
card "- ->" as 8
1 - -> 8
card "- ->>" as 9
1 - ->> 9
card "*- ->" as 11
1 *- -> 11
card "- -#" as 12
1 - -# 12
@enduml

PlantUML version 1.2018.05(Sat May 05 20:00:17 GMT 2018)
(GPL source distribution)
Java Runtime: Java(TM) SE Runtime Environment
JVM: Java HotSpot(TM) 64-Bit Server VM
Java Version: 1.8.0_161-b12
Operating System: Linux
OS Version: 4.9.87-linuxkit-aufs
Default Encoding: ANSI_X3.4-1968
Language: en
Country: US
--></g></svg>