<?xml version="1.0" encoding="UTF-8" standalone="no"?><svg xmlns="http://www.w3.org/2000/svg" xmlns:xlink="http://www.w3.org/1999/xlink" contentScriptType="application/ecmascript" contentStyleType="text/css" height="120px" preserveAspectRatio="none" style="width:517px;height:120px;" version="1.1" viewBox="0 0 517 120" width="517px" zoomAndPan="magnify"><defs><filter height="300%" id="f1o8zzfnpjq3zm" width="300%" x="-1" y="-1"><feGaussianBlur result="blurOut" stdDeviation="2.0"/><feColorMatrix in="blurOut" result="blurOut2" type="matrix" values="0 0 0 0 0 0 0 0 0 0 0 0 0 0 0 0 0 0 .4 0"/><feOffset dx="4.0" dy="4.0" in="blurOut2" result="blurOut3"/><feBlend in="SourceGraphic" in2="blurOut3" mode="normal"/></filter></defs><g><!--entity 20--><rect fill="#FFFFFF" filter="url(#f1o8zzfnpjq3zm)" height="15.3333" style="stroke: #000000; stroke-width: 1.5;" width="31.3333" x="218.5" y="8"/><path d="M235.3333,12.1667 L235.3333,14.5 L229.5,14.5 L229.5,15.6667 L235.3333,15.6667 L235.3333,18 L238.8333,15.0472 L235.3333,12.1667 " fill="#000000" style="stroke: ; stroke-width: 0.0; stroke-dasharray: ;"/><!--entity 21--><rect fill="#FFFFFF" filter="url(#f1o8zzfnpjq3zm)" height="22.29" style="stroke: #000000; stroke-width: 1.5;" width="28" x="6" y="85.5"/><text fill="#000000" font-family="sans-serif" font-size="14" lengthAdjust="spacingAndGlyphs" textLength="8" x="16" y="101.8027">..</text><!--entity 22--><rect fill="#FFFFFF" filter="url(#f1o8zzfnpjq3zm)" height="22.29" style="stroke: #000000; stroke-width: 1.5;" width="36" x="69" y="85.5"/><text fill="#000000" font-family="sans-serif" font-size="14" lengthAdjust="spacingAndGlyphs" textLength="16" x="79" y="101.8027">--</text><!--entity 23--><rect fill="#FFFFFF" filter="url(#f1o8zzfnpjq3zm)" height="26.9443" style="stroke: #000000; stroke-width: 1.5;" width="34" x="140" y="83"/><text fill="#000000" font-family="sans-serif" font-size="18" font-weight="bold" lengthAdjust="spacingAndGlyphs" textLength="14" x="150" y="103.1475">=</text><!--entity 24--><rect fill="#FFFFFF" filter="url(#f1o8zzfnpjq3zm)" height="22.29" style="stroke: #000000; stroke-width: 1.5;" width="50" x="209" y="85.5"/><text fill="#000000" font-family="sans-serif" font-size="14" lengthAdjust="spacingAndGlyphs" textLength="30" x="219" y="101.8027">-(0-</text><!--entity 15--><rect fill="#FFFFFF" filter="url(#f1o8zzfnpjq3zm)" height="22.29" style="stroke: #000000; stroke-width: 1.5;" width="50" x="294" y="85.5"/><text fill="#000000" font-family="sans-serif" font-size="14" lengthAdjust="spacingAndGlyphs" textLength="30" x="304" y="101.8027">--(0</text><!--entity 16--><rect fill="#FFFFFF" filter="url(#f1o8zzfnpjq3zm)" height="22.29" style="stroke: #000000; stroke-width: 1.5;" width="47" x="379.5" y="85.5"/><text fill="#000000" font-family="sans-serif" font-size="14" lengthAdjust="spacingAndGlyphs" textLength="27" x="389.5" y="101.8027">--+</text><!--entity 17--><rect fill="#FFFFFF" filter="url(#f1o8zzfnpjq3zm)" height="22.29" style="stroke: #000000; stroke-width: 1.5;" width="45" x="461.5" y="85.5"/><text fill="#000000" font-family="sans-serif" font-size="14" lengthAdjust="spacingAndGlyphs" textLength="25" x="471.5" y="101.8027">--^</text><!--link 20 to 21--><path d="M218.2173,20.9778 C186.3796,32.1033 112.2725,58.3817 51,83 C45.4441,85.2323 39.3943,87.8288 34.1261,90.1451 " fill="none" id="20-21" style="stroke: #383838; stroke-width: 1.0; stroke-dasharray: 7.0,7.0;"/><!--link 20 to 22--><path d="M220.1706,23.1203 C193.583,37.7706 135.3307,69.8688 105.4618,86.3271 " fill="none" id="20-22" style="stroke: #383838; stroke-width: 1.0;"/><!--link 20 to 23--><path d="M226.6169,23.2666 C213.5929,36.9672 186.379,65.5948 170.1015,82.7179 " fill="none" id="20-23" style="stroke: #383838; stroke-width: 2.0;"/><!--link 20 to 24--><path d="M234,23.2666 C234,37.6799 234,68.6138 234,85.2931 " fill="none" id="20-24" style="stroke: #383838; stroke-width: 1.0;"/><path d="M241.0711,46.359 A10,10 0 0 0 226.9289 46.359" fill="#FFFFFF" style="stroke: #383838; stroke-width: 1.5;"/><ellipse cx="234" cy="53.4301" fill="#FFFFFF" rx="6" ry="6" style="stroke: #383838; stroke-width: 1.5;"/><!--link 20 to 15--><path d="M242.1502,23.2666 C256.2117,36.6665 285.2575,64.3454 303.337,81.5741 " fill="none" id="20-15" style="stroke: #383838; stroke-width: 1.0;"/><ellipse cx="307.2397" cy="85.2931" fill="#FFFFFF" rx="6" ry="6" style="stroke: #383838; stroke-width: 1.5;"/><path d="M306.9989,75.296 A10,10 0 0 0 297.2426 85.5339" fill="#FFFFFF" style="stroke: #383838; stroke-width: 1.5;"/><!--link 20 to 16--><path d="M249.5962,22.9751 C275.8818,35.5735 329.692,61.3642 366.0646,78.7972 " fill="none" id="20-16" style="stroke: #383838; stroke-width: 1.0;"/><ellipse cx="372.7738" cy="82.0129" fill="#FFFFFF" rx="8" ry="8" style="stroke: #383838; stroke-width: 1.0;"/><line style="stroke: #383838; stroke-width: 1.0;" x1="365.5596" x2="379.988" y1="78.5553" y2="85.4706"/><line style="stroke: #383838; stroke-width: 1.0;" x1="376.2315" x2="369.3162" y1="74.7988" y2="89.2271"/><!--link 20 to 17--><path d="M249.5684,20.4191 C281.9508,30.6682 359.2976,55.2381 442.0418,82.4298 " fill="none" id="20-17" style="stroke: #383838; stroke-width: 1.0;"/><polygon fill="none" points="444.3686,75.8261,461.174,88.7326,439.988,89.1232,444.3686,75.8261" style="stroke: #383838; stroke-width: 1.0;"/><!--
@startuml arrows
skinparam monochrome true
skinparam cardBackgroundColor white
card "<&arrow-right>" as 20
card ".." as 21
20 .. 21
card "- -" as 22
20 - - 22
card "==" as 23
20 == 23
card "-(0-" as 24
20 -(0- 24
card "- -(0" as 15
20 - -(0 15
card "- -+" as 16
20 - -+ 16
card "- -^" as 17
20 - -^ 17
@enduml

PlantUML version 1.2018.05(Sat May 05 20:00:17 GMT 2018)
(GPL source distribution)
Java Runtime: Java(TM) SE Runtime Environment
JVM: Java HotSpot(TM) 64-Bit Server VM
Java Version: 1.8.0_161-b12
Operating System: Linux
OS Version: 4.9.125-linuxkit
Default Encoding: ANSI_X3.4-1968
Language: en
Country: US
--></g></svg>