<?xml version="1.0" encoding="UTF-8" standalone="no"?><svg xmlns="http://www.w3.org/2000/svg" xmlns:xlink="http://www.w3.org/1999/xlink" contentScriptType="application/ecmascript" contentStyleType="text/css" height="516px" preserveAspectRatio="none" style="width:548px;height:516px;" version="1.1" viewBox="0 0 548 516" width="548px" zoomAndPan="magnify"><defs><filter height="300%" id="fuo9z9wsag67l" width="300%" x="-1" y="-1"><feGaussianBlur result="blurOut" stdDeviation="2.0"/><feColorMatrix in="blurOut" result="blurOut2" type="matrix" values="0 0 0 0 0 0 0 0 0 0 0 0 0 0 0 0 0 0 .4 0"/><feOffset dx="4.0" dy="4.0" in="blurOut2" result="blurOut3"/><feBlend in="SourceGraphic" in2="blurOut3" mode="normal"/></filter></defs><g><!--entity actor--><ellipse cx="49.5" cy="18" fill="#F8F8F8" filter="url(#fuo9z9wsag67l)" rx="8" ry="8" style="stroke: #383838; stroke-width: 2.0;"/><path d="M49.5,26 L49.5,53 M36.5,34 L62.5,34 M49.5,53 L36.5,68 M49.5,53 L62.5,68 " fill="none" filter="url(#fuo9z9wsag67l)" style="stroke: #383838; stroke-width: 2.0;"/><text fill="#000000" font-family="sans-serif" font-size="14" lengthAdjust="spacingAndGlyphs" textLength="35" x="32" y="88.3027">actor</text><!--entity agent--><rect fill="#F8F8F8" filter="url(#fuo9z9wsag67l)" height="36.29" style="stroke: #383838; stroke-width: 1.5;" width="59" x="102" y="31.5"/><text fill="#000000" font-family="sans-serif" font-size="14" lengthAdjust="spacingAndGlyphs" textLength="39" x="112" y="54.8027">agent</text><!--entity artifact--><rect fill="#F8F8F8" filter="url(#fuo9z9wsag67l)" height="39.29" style="stroke: #000000; stroke-width: 1.5;" width="78" x="196.5" y="30"/><polygon fill="#F8F8F8" points="257.5,35,257.5,49,269.5,49,269.5,41,263.5,35,257.5,35" style="stroke: #000000; stroke-width: 1.5;"/><line style="stroke: #000000; stroke-width: 1.5;" x1="263.5" x2="263.5" y1="35" y2="41"/><line style="stroke: #000000; stroke-width: 1.5;" x1="269.5" x2="263.5" y1="41" y2="41"/><text fill="#000000" font-family="sans-serif" font-size="14" lengthAdjust="spacingAndGlyphs" textLength="48" x="206.5" y="56.3027">artifact</text><!--entity boundary--><path d="M322,29.5 L322,53.5 M322,41.5 L339,41.5 " fill="none" filter="url(#fuo9z9wsag67l)" style="stroke: #383838; stroke-width: 2.0;"/><ellipse cx="351" cy="41.5" fill="#F8F8F8" filter="url(#fuo9z9wsag67l)" rx="12" ry="12" style="stroke: #383838; stroke-width: 2.0;"/><text fill="#000000" font-family="sans-serif" font-size="14" lengthAdjust="spacingAndGlyphs" textLength="66" x="309.5" y="70.8027">boundary</text><!--entity card--><rect fill="#F8F8F8" filter="url(#fuo9z9wsag67l)" height="22.29" style="stroke: #000000; stroke-width: 1.5;" width="50" x="410.5" y="38.5"/><text fill="#000000" font-family="sans-serif" font-size="14" lengthAdjust="spacingAndGlyphs" textLength="30" x="420.5" y="54.8027">card</text><!--entity cloud--><path d="M23.5,164 C23.5,161 25.5,159 28.5,159 C31.5,159 33.5,161 33.5,164 C33.5,161 35.5,159 38.5,159 C41.5,159 43.5,161 43.5,164 C43.5,161 45.5,159 48.5,159 C51.5,159 53.5,161 53.5,164 C53.5,161 55.5,159 58.5,159 C61.5,159 63.5,161 63.5,164 C63.5,161 65.5,159 68.5,159 C71.5,159 73.5,161 73.5,164 C76.5,164 78.5,166 78.5,169 C78.5,172 76.5,174 73.5,174 C76.5,174 78.5,176 78.5,179 C78.5,182 76.5,184 73.5,184 C73.5,187 70.5,189 68.5,189 C65.5,189 63.5,187 63.5,184 C63.5,187 60.5,189 58.5,189 C55.5,189 53.5,187 53.5,184 C53.5,187 50.5,189 48.5,189 C45.5,189 43.5,187 43.5,184 C43.5,187 40.5,189 38.5,189 C35.5,189 33.5,187 33.5,184 C33.5,187 30.5,189 28.5,189 C25.5,189 23.5,187 23.5,184 C20.5,184 18.5,182 18.5,179 C18.5,176 20.5,174 23.5,174 C20.5,174 18.5,172 18.5,169 C18.5,166 20.5,164 23.5,164 " fill="#F8F8F8" filter="url(#fuo9z9wsag67l)" style="stroke: #000000; stroke-width: 1.5;"/><text fill="#000000" font-family="sans-serif" font-size="14" lengthAdjust="spacingAndGlyphs" textLength="38" x="30.5" y="180.3027">cloud</text><!--entity component--><rect fill="#F8F8F8" filter="url(#fuo9z9wsag67l)" height="36.29" style="stroke: #383838; stroke-width: 1.5;" width="98" x="113.5" y="157"/><rect fill="#F8F8F8" height="5" style="stroke: #383838; stroke-width: 1.5;" width="10" x="108.5" y="162"/><rect fill="#F8F8F8" height="5" style="stroke: #383838; stroke-width: 1.5;" width="10" x="108.5" y="183.29"/><text fill="#000000" font-family="sans-serif" font-size="14" lengthAdjust="spacingAndGlyphs" textLength="78" x="123.5" y="180.3027">component</text><!--entity control--><ellipse cx="271.5" cy="167" fill="#F8F8F8" filter="url(#fuo9z9wsag67l)" rx="12" ry="12" style="stroke: #383838; stroke-width: 2.0;"/><polygon fill="#383838" points="267.5,155,273.5,150,271.5,155,273.5,160,267.5,155" style="stroke: #383838; stroke-width: 1.0;"/><text fill="#000000" font-family="sans-serif" font-size="14" lengthAdjust="spacingAndGlyphs" textLength="49" x="247" y="196.3027">control</text><!--entity database--><path d="M331.5,162.5 C331.5,152.5 372.5,152.5 372.5,152.5 C372.5,152.5 413.5,152.5 413.5,162.5 L413.5,187.79 C413.5,197.79 372.5,197.79 372.5,197.79 C372.5,197.79 331.5,197.79 331.5,187.79 L331.5,162.5 " fill="#F8F8F8" filter="url(#fuo9z9wsag67l)" style="stroke: #000000; stroke-width: 1.5;"/><path d="M331.5,162.5 C331.5,172.5 372.5,172.5 372.5,172.5 C372.5,172.5 413.5,172.5 413.5,162.5 " fill="none" style="stroke: #000000; stroke-width: 1.5;"/><text fill="#000000" font-family="sans-serif" font-size="14" lengthAdjust="spacingAndGlyphs" textLength="62" x="341.5" y="189.8027">database</text><!--entity entity--><ellipse cx="467.5" cy="167" fill="#F8F8F8" filter="url(#fuo9z9wsag67l)" rx="12" ry="12" style="stroke: #383838; stroke-width: 2.0;"/><line style="stroke: #383838; stroke-width: 2.0;" x1="455.5" x2="479.5" y1="181" y2="181"/><text fill="#000000" font-family="sans-serif" font-size="14" lengthAdjust="spacingAndGlyphs" textLength="38" x="448.5" y="196.3027">entity</text><!--entity file--><polygon fill="#F8F8F8" filter="url(#fuo9z9wsag67l)" points="29,270,29,306.29,70,306.29,70,280,60,270,29,270" style="stroke: #000000; stroke-width: 1.5;"/><path d="M60,270 L60,280 L70,280 " fill="#F8F8F8" style="stroke: #000000; stroke-width: 1.5;"/><text fill="#000000" font-family="sans-serif" font-size="14" lengthAdjust="spacingAndGlyphs" textLength="21" x="39" y="293.3027">file</text><!--entity folder--><polygon fill="#F8F8F8" filter="url(#fuo9z9wsag67l)" points="105,268.5,152,268.5,159,290.79,176,290.79,176,307.79,105,307.79,105,268.5" style="stroke: #000000; stroke-width: 1.5;"/><line style="stroke: #000000; stroke-width: 1.5;" x1="105" x2="159" y1="290.79" y2="290.79"/><text fill="#000000" font-family="sans-serif" font-size="14" lengthAdjust="spacingAndGlyphs" textLength="41" x="109" y="284.8027">folder</text><!--entity frame--><rect fill="#F8F8F8" filter="url(#fuo9z9wsag67l)" height="46.29" style="stroke: #000000; stroke-width: 1.5;" width="80" x="211.5" y="265"/><path d="M238.1667,266 L238.1667,270 L231.1667,277 L211.5,277 " fill="none" style="stroke: #000000; stroke-width: 1.5;"/><text fill="#000000" font-family="sans-serif" font-size="14" lengthAdjust="spacingAndGlyphs" textLength="40" x="226.5" y="298.3027">frame</text><!--entity interface--><ellipse cx="364.5" cy="288" fill="#F8F8F8" filter="url(#fuo9z9wsag67l)" rx="8" ry="8" style="stroke: #383838; stroke-width: 2.0;"/><text fill="#000000" font-family="sans-serif" font-size="14" lengthAdjust="spacingAndGlyphs" textLength="60" x="334.5" y="318.3027">interface</text><!--entity node--><polygon fill="#F8F8F8" filter="url(#fuo9z9wsag67l)" points="438,275,448,265,513,265,513,301.29,503,311.29,438,311.29,438,275" style="stroke: #000000; stroke-width: 1.5;"/><line style="stroke: #000000; stroke-width: 1.5;" x1="503" x2="512" y1="275" y2="266"/><line style="stroke: #000000; stroke-width: 1.5;" x1="438" x2="503" y1="275" y2="275"/><line style="stroke: #000000; stroke-width: 1.5;" x1="503" x2="503" y1="275" y2="311.29"/><text fill="#000000" font-family="sans-serif" font-size="14" lengthAdjust="spacingAndGlyphs" textLength="35" x="453" y="298.3027">node</text><!--entity package--><polygon fill="#F8F8F8" filter="url(#fuo9z9wsag67l)" points="6,377,69,377,76,399.29,93,399.29,93,416.29,6,416.29,6,377" style="stroke: #000000; stroke-width: 1.5;"/><line style="stroke: #000000; stroke-width: 1.5;" x1="6" x2="76" y1="399.29" y2="399.29"/><text fill="#000000" font-family="sans-serif" font-size="14" lengthAdjust="spacingAndGlyphs" textLength="57" x="10" y="393.3027">package</text><!--entity queue--><path d="M133,383.5 L186,383.5 C191,383.5 191,396.645 191,396.645 C191,396.645 191,409.79 186,409.79 L133,409.79 C128,409.79 128,396.645 128,396.645 C128,396.645 128,383.5 133,383.5 " fill="#F8F8F8" filter="url(#fuo9z9wsag67l)" style="stroke: #383838; stroke-width: 1.5;"/><path d="M186,383.5 C181,383.5 181,396.645 181,396.645 C181,409.79 186,409.79 186,409.79 " fill="none" style="stroke: #383838; stroke-width: 1.5;"/><text fill="#000000" font-family="sans-serif" font-size="14" lengthAdjust="spacingAndGlyphs" textLength="43" x="133" y="401.8027">queue</text><!--entity stack--><rect fill="#F8F8F8" filter="url(#fuo9z9wsag67l)" height="36.29" style="stroke: none; stroke-width: 1.5;" width="55" x="241" y="378.5"/><path d="M226,378.5 L241,378.5 L241,414.79 L296,414.79 L296,378.5 L311,378.5 " fill="none" style="stroke: #383838; stroke-width: 1.5;"/><text fill="#000000" font-family="sans-serif" font-size="14" lengthAdjust="spacingAndGlyphs" textLength="35" x="251" y="401.8027">stack</text><!--entity rectangle--><rect fill="#F8F8F8" filter="url(#fuo9z9wsag67l)" height="36.29" style="stroke: #000000; stroke-width: 1.5;" width="84" x="346.5" y="378.5"/><text fill="#000000" font-family="sans-serif" font-size="14" lengthAdjust="spacingAndGlyphs" textLength="64" x="356.5" y="401.8027">rectangle</text><!--entity storage--><rect fill="#F8F8F8" filter="url(#fuo9z9wsag67l)" height="36.29" rx="35" ry="35" style="stroke: #000000; stroke-width: 1.5;" width="72" x="465.5" y="378.5"/><text fill="#000000" font-family="sans-serif" font-size="14" lengthAdjust="spacingAndGlyphs" textLength="52" x="475.5" y="401.8027">storage</text><ellipse cx="49.6838" cy="490.5188" fill="#F8F8F8" filter="url(#fuo9z9wsag67l)" rx="41.1838" ry="14.5188" style="stroke: #383838; stroke-width: 1.5;"/><text fill="#000000" font-family="sans-serif" font-size="14" lengthAdjust="spacingAndGlyphs" textLength="54" x="22.6838" y="495.1638">usecase</text><!--link actor to agent--><!--link agent to artifact--><!--link artifact to boundary--><!--link boundary to card--><!--link actor to cloud--><!--link cloud to component--><!--link component to control--><!--link control to database--><!--link database to entity--><!--link cloud to file--><!--link file to folder--><!--link folder to frame--><!--link frame to interface--><!--link interface to node--><!--link file to package--><!--link package to queue--><!--link queue to stack--><!--link stack to rectangle--><!--link rectangle to storage--><!--link package to usecase--><!--
@startuml components
skinparam monochrome true
actor actor
agent agent
artifact artifact
boundary boundary
card card
cloud cloud
component component
control control
database database
entity entity
file file
folder folder
frame frame
interface  interface
node node
package package
queue queue
stack stack
rectangle rectangle
storage storage
usecase usecase
@enduml

PlantUML version 1.2018.05(Sat May 05 20:00:17 GMT 2018)
(GPL source distribution)
Java Runtime: Java(TM) SE Runtime Environment
JVM: Java HotSpot(TM) 64-Bit Server VM
Java Version: 1.8.0_161-b12
Operating System: Linux
OS Version: 4.9.87-linuxkit-aufs
Default Encoding: ANSI_X3.4-1968
Language: en
Country: US
--></g></svg>