<?xml version="1.0" encoding="UTF-8" standalone="no"?><svg xmlns="http://www.w3.org/2000/svg" xmlns:xlink="http://www.w3.org/1999/xlink" contentScriptType="application/ecmascript" contentStyleType="text/css" height="305px" preserveAspectRatio="none" style="width:465px;height:305px;" version="1.1" viewBox="0 0 465 305" width="465px" zoomAndPan="magnify"><defs><filter height="300%" id="f1i3yjq6z7bvw0" width="300%" x="-1" y="-1"><feGaussianBlur result="blurOut" stdDeviation="2.0"/><feColorMatrix in="blurOut" result="blurOut2" type="matrix" values="0 0 0 0 0 0 0 0 0 0 0 0 0 0 0 0 0 0 .4 0"/><feOffset dx="4.0" dy="4.0" in="blurOut2" result="blurOut3"/><feBlend in="SourceGraphic" in2="blurOut3" mode="normal"/></filter></defs><g><!--entity actor--><ellipse cx="55" cy="18" fill="#F8F8F8" filter="url(#f1i3yjq6z7bvw0)" rx="8" ry="8" style="stroke: #383838; stroke-width: 2.0;"/><path d="M55,26 L55,53 M42,34 L68,34 M55,53 L42,68 M55,53 L68,68 " fill="none" filter="url(#f1i3yjq6z7bvw0)" style="stroke: #383838; stroke-width: 2.0;"/><text fill="#000000" font-family="sans-serif" font-size="14" lengthAdjust="spacingAndGlyphs" textLength="35" x="37.5" y="88.3027">actor</text><!--entity agent /\ncard /\nrectangle--><rect fill="#F8F8F8" filter="url(#f1i3yjq6z7bvw0)" height="68.8701" style="stroke: #383838; stroke-width: 1.5;" width="84" x="88" y="15"/><text fill="#000000" font-family="sans-serif" font-size="14" lengthAdjust="spacingAndGlyphs" textLength="50" x="105" y="38.3027">agent /</text><text fill="#000000" font-family="sans-serif" font-size="14" lengthAdjust="spacingAndGlyphs" textLength="41" x="109.5" y="54.5928">card /</text><text fill="#000000" font-family="sans-serif" font-size="14" lengthAdjust="spacingAndGlyphs" textLength="64" x="98" y="70.8828">rectangle</text><!--entity artifact--><rect fill="#F8F8F8" filter="url(#f1i3yjq6z7bvw0)" height="39.29" style="stroke: #000000; stroke-width: 1.5;" width="78" x="187" y="30"/><polygon fill="#F8F8F8" points="248,35,248,49,260,49,260,41,254,35,248,35" style="stroke: #000000; stroke-width: 1.5;"/><line style="stroke: #000000; stroke-width: 1.5;" x1="254" x2="254" y1="35" y2="41"/><line style="stroke: #000000; stroke-width: 1.5;" x1="260" x2="254" y1="41" y2="41"/><text fill="#000000" font-family="sans-serif" font-size="14" lengthAdjust="spacingAndGlyphs" textLength="48" x="197" y="56.3027">artifact</text><!--entity boundary--><path d="M292.5,29.5 L292.5,53.5 M292.5,41.5 L309.5,41.5 " fill="none" filter="url(#f1i3yjq6z7bvw0)" style="stroke: #383838; stroke-width: 2.0;"/><ellipse cx="321.5" cy="41.5" fill="#F8F8F8" filter="url(#f1i3yjq6z7bvw0)" rx="12" ry="12" style="stroke: #383838; stroke-width: 2.0;"/><text fill="#000000" font-family="sans-serif" font-size="14" lengthAdjust="spacingAndGlyphs" textLength="66" x="280" y="70.8027">boundary</text><!--entity cloud--><path d="M364,38.5 C364,35.5 366,33.5 369,33.5 C372,33.5 374,35.5 374,38.5 C374,35.5 376,33.5 379,33.5 C382,33.5 384,35.5 384,38.5 C384,35.5 386,33.5 389,33.5 C392,33.5 394,35.5 394,38.5 C394,35.5 396,33.5 399,33.5 C402,33.5 404,35.5 404,38.5 C404,35.5 406,33.5 409,33.5 C412,33.5 414,35.5 414,38.5 C417,38.5 419,40.5 419,43.5 C419,46.5 417,48.5 414,48.5 C417,48.5 419,50.5 419,53.5 C419,56.5 417,58.5 414,58.5 C414,61.5 411,63.5 409,63.5 C406,63.5 404,61.5 404,58.5 C404,61.5 401,63.5 399,63.5 C396,63.5 394,61.5 394,58.5 C394,61.5 391,63.5 389,63.5 C386,63.5 384,61.5 384,58.5 C384,61.5 381,63.5 379,63.5 C376,63.5 374,61.5 374,58.5 C374,61.5 371,63.5 369,63.5 C366,63.5 364,61.5 364,58.5 C361,58.5 359,56.5 359,53.5 C359,50.5 361,48.5 364,48.5 C361,48.5 359,46.5 359,43.5 C359,40.5 361,38.5 364,38.5 " fill="#F8F8F8" filter="url(#f1i3yjq6z7bvw0)" style="stroke: #000000; stroke-width: 1.5;"/><text fill="#000000" font-family="sans-serif" font-size="14" lengthAdjust="spacingAndGlyphs" textLength="38" x="371" y="54.8027">cloud</text><!--entity component--><rect fill="#F8F8F8" filter="url(#f1i3yjq6z7bvw0)" height="36.29" style="stroke: #383838; stroke-width: 1.5;" width="98" x="6" y="112"/><rect fill="#F8F8F8" height="5" style="stroke: #383838; stroke-width: 1.5;" width="10" x="1" y="117"/><rect fill="#F8F8F8" height="5" style="stroke: #383838; stroke-width: 1.5;" width="10" x="1" y="138.29"/><text fill="#000000" font-family="sans-serif" font-size="14" lengthAdjust="spacingAndGlyphs" textLength="78" x="16" y="135.3027">component</text><!--entity control--><ellipse cx="143" cy="122" fill="#F8F8F8" filter="url(#f1i3yjq6z7bvw0)" rx="12" ry="12" style="stroke: #383838; stroke-width: 2.0;"/><polygon fill="#383838" points="139,110,145,105,143,110,145,115,139,110" style="stroke: #383838; stroke-width: 1.0;"/><text fill="#000000" font-family="sans-serif" font-size="14" lengthAdjust="spacingAndGlyphs" textLength="49" x="118.5" y="151.3027">control</text><!--entity database--><path d="M183,117.5 C183,107.5 224,107.5 224,107.5 C224,107.5 265,107.5 265,117.5 L265,142.79 C265,152.79 224,152.79 224,152.79 C224,152.79 183,152.79 183,142.79 L183,117.5 " fill="#F8F8F8" filter="url(#f1i3yjq6z7bvw0)" style="stroke: #000000; stroke-width: 1.5;"/><path d="M183,117.5 C183,127.5 224,127.5 224,127.5 C224,127.5 265,127.5 265,117.5 " fill="none" style="stroke: #000000; stroke-width: 1.5;"/><text fill="#000000" font-family="sans-serif" font-size="14" lengthAdjust="spacingAndGlyphs" textLength="62" x="193" y="144.8027">database</text><!--entity entity--><ellipse cx="299" cy="122" fill="#F8F8F8" filter="url(#f1i3yjq6z7bvw0)" rx="12" ry="12" style="stroke: #383838; stroke-width: 2.0;"/><line style="stroke: #383838; stroke-width: 2.0;" x1="287" x2="311" y1="136" y2="136"/><text fill="#000000" font-family="sans-serif" font-size="14" lengthAdjust="spacingAndGlyphs" textLength="38" x="280" y="151.3027">entity</text><!--entity file--><polygon fill="#F8F8F8" filter="url(#f1i3yjq6z7bvw0)" points="333.5,112,333.5,148.29,374.5,148.29,374.5,122,364.5,112,333.5,112" style="stroke: #000000; stroke-width: 1.5;"/><path d="M364.5,112 L364.5,122 L374.5,122 " fill="#F8F8F8" style="stroke: #000000; stroke-width: 1.5;"/><text fill="#000000" font-family="sans-serif" font-size="14" lengthAdjust="spacingAndGlyphs" textLength="21" x="343.5" y="135.3027">file</text><!--entity folder /\npackage--><polygon fill="#F8F8F8" filter="url(#f1i3yjq6z7bvw0)" points="11.5,170,74.5,170,81.5,208.5801,98.5,208.5801,98.5,225.5801,11.5,225.5801,11.5,170" style="stroke: #000000; stroke-width: 1.5;"/><line style="stroke: #000000; stroke-width: 1.5;" x1="11.5" x2="81.5" y1="208.5801" y2="208.5801"/><text fill="#000000" font-family="sans-serif" font-size="14" lengthAdjust="spacingAndGlyphs" textLength="52" x="18" y="186.3027">folder /</text><text fill="#000000" font-family="sans-serif" font-size="14" lengthAdjust="spacingAndGlyphs" textLength="57" x="15.5" y="202.5928">package</text><!--entity frame--><rect fill="#F8F8F8" filter="url(#f1i3yjq6z7bvw0)" height="46.29" style="stroke: #000000; stroke-width: 1.5;" width="80" x="114" y="175"/><path d="M140.6667,176 L140.6667,180 L133.6667,187 L114,187 " fill="none" style="stroke: #000000; stroke-width: 1.5;"/><text fill="#000000" font-family="sans-serif" font-size="14" lengthAdjust="spacingAndGlyphs" textLength="40" x="129" y="208.3027">frame</text><!--entity interface--><ellipse cx="247" cy="198" fill="#F8F8F8" filter="url(#f1i3yjq6z7bvw0)" rx="8" ry="8" style="stroke: #383838; stroke-width: 2.0;"/><text fill="#000000" font-family="sans-serif" font-size="14" lengthAdjust="spacingAndGlyphs" textLength="60" x="217" y="228.3027">interface</text><!--entity node--><polygon fill="#F8F8F8" filter="url(#f1i3yjq6z7bvw0)" points="300.5,185,310.5,175,375.5,175,375.5,211.29,365.5,221.29,300.5,221.29,300.5,185" style="stroke: #000000; stroke-width: 1.5;"/><line style="stroke: #000000; stroke-width: 1.5;" x1="365.5" x2="374.5" y1="185" y2="176"/><line style="stroke: #000000; stroke-width: 1.5;" x1="300.5" x2="365.5" y1="185" y2="185"/><line style="stroke: #000000; stroke-width: 1.5;" x1="365.5" x2="365.5" y1="185" y2="221.29"/><text fill="#000000" font-family="sans-serif" font-size="14" lengthAdjust="spacingAndGlyphs" textLength="35" x="315.5" y="208.3027">node</text><!--entity queue--><path d="M395.5,185 L448.5,185 C453.5,185 453.5,198.145 453.5,198.145 C453.5,198.145 453.5,211.29 448.5,211.29 L395.5,211.29 C390.5,211.29 390.5,198.145 390.5,198.145 C390.5,198.145 390.5,185 395.5,185 " fill="#F8F8F8" filter="url(#f1i3yjq6z7bvw0)" style="stroke: #383838; stroke-width: 1.5;"/><path d="M448.5,185 C443.5,185 443.5,198.145 443.5,198.145 C443.5,211.29 448.5,211.29 448.5,211.29 " fill="none" style="stroke: #383838; stroke-width: 1.5;"/><text fill="#000000" font-family="sans-serif" font-size="14" lengthAdjust="spacingAndGlyphs" textLength="43" x="395.5" y="203.3027">queue</text><!--entity stack--><rect fill="#F8F8F8" filter="url(#f1i3yjq6z7bvw0)" height="36.29" style="stroke: none; stroke-width: 1.5;" width="55" x="27.5" y="250.5"/><path d="M12.5,250.5 L27.5,250.5 L27.5,286.79 L82.5,286.79 L82.5,250.5 L97.5,250.5 " fill="none" style="stroke: #383838; stroke-width: 1.5;"/><text fill="#000000" font-family="sans-serif" font-size="14" lengthAdjust="spacingAndGlyphs" textLength="35" x="37.5" y="273.8027">stack</text><!--entity storage /\nusecase--><rect fill="#F8F8F8" filter="url(#f1i3yjq6z7bvw0)" height="52.5801" rx="35" ry="35" style="stroke: #000000; stroke-width: 1.5;" width="83" x="112.5" y="242"/><text fill="#000000" font-family="sans-serif" font-size="14" lengthAdjust="spacingAndGlyphs" textLength="63" x="122.5" y="265.3027">storage /</text><text fill="#000000" font-family="sans-serif" font-size="14" lengthAdjust="spacingAndGlyphs" textLength="54" x="127" y="281.5928">usecase</text><!--link actor to agent /\ncard /\nrectangle--><!--link agent /\ncard /\nrectangle to artifact--><!--link artifact to boundary--><!--link boundary to cloud--><!--link actor to component--><!--link component to control--><!--link control to database--><!--link database to entity--><!--link entity to file--><!--link component to folder /\npackage--><!--link folder /\npackage to frame--><!--link frame to interface--><!--link interface to node--><!--link node to queue--><!--link folder /\npackage to stack--><!--link stack to storage /\nusecase--><!--
@startuml components
skinparam monochrome true
skinparam Nodesep 15
skinparam Ranksep 15
skinparam defaulttextalignment center
actor actor
agent "agent /\ncard /\nrectangle"
artifact artifact
boundary boundary
cloud cloud
component component
control control
database database
entity entity
file file
folder "folder /\npackage"
frame frame
interface interface
node node
queue queue
stack stack
storage "storage /\nusecase"
@enduml

PlantUML version 1.2018.05(Sat May 05 20:00:17 GMT 2018)
(GPL source distribution)
Java Runtime: Java(TM) SE Runtime Environment
JVM: Java HotSpot(TM) 64-Bit Server VM
Java Version: 1.8.0_161-b12
Operating System: Linux
OS Version: 4.9.125-linuxkit
Default Encoding: ANSI_X3.4-1968
Language: en
Country: US
--></g></svg>