<?xml version="1.0" encoding="UTF-8" standalone="no"?><svg xmlns="http://www.w3.org/2000/svg" xmlns:xlink="http://www.w3.org/1999/xlink" contentScriptType="application/ecmascript" contentStyleType="text/css" height="72px" preserveAspectRatio="none" style="width:242px;height:72px;" version="1.1" viewBox="0 0 242 72" width="242px" zoomAndPan="magnify"><defs/><g><!--entity cloud--><rect fill="#FFFFFF" height="53.3333" style="stroke: #FFFFFF; stroke-width: 1.5;" width="55.3333" x="91" y="8"/><path d="M120.75,22.1667 C115.7083,22.1667 111.2917,25.75 110.3333,30.5 C105.75,30.5 102,34.25 102,38.8333 C102,43.4167 105.75,47.1667 110.3333,47.1667 L129.0833,47.1667 C132.5417,47.1667 135.3333,44.375 135.3333,40.9167 C135.3333,38.2083 133.5833,35.5417 131.1667,34.6667 L131.1667,32.5833 C131.1667,26.8333 126.5,22.1667 120.75,22.1667 " fill="#000000" style="stroke: ; stroke-width: 0.0; stroke-dasharray: ;"/><!--entity cloudy--><rect fill="#FFFFFF" height="53.3333" style="stroke: #FFFFFF; stroke-width: 1.5;" width="55.3333" x="176" y="8"/><path d="M197.4167,18 C191.6667,18 187,22.6667 187,28.4167 C187,30.0417 187.375,31.5125 188.0417,32.8458 C189.2917,31.9708 190.6667,31.2667 192.2083,30.8917 C194.5,25.6833 199.7917,22.2083 205.75,22.1667 C203.8333,19.6667 200.8333,18 197.4167,18 M205.75,26.3333 C200.7083,26.3333 196.2917,29.9167 195.3333,34.6667 C190.75,34.6667 187,38.4167 187,43 C187,47.5833 190.75,51.3333 195.3333,51.3333 L214.0833,51.3333 C217.5417,51.3333 220.3333,48.5417 220.3333,45.0833 C220.3333,42.375 218.5833,39.7083 216.1667,38.8333 L216.1667,36.75 C216.1667,31 211.5,26.3333 205.75,26.3333 " fill="#000000" style="stroke: ; stroke-width: 0.0; stroke-dasharray: ;"/><!--entity sun--><rect fill="#FFFFFF" height="53.3333" style="stroke: #FFFFFF; stroke-width: 1.5;" width="55.3333" x="6" y="8"/><path d="M33.6667,18 C32.5167,18 31.5833,18.9333 31.5833,20.0833 C31.5833,21.2333 32.5167,22.1667 33.6667,22.1667 C34.8167,22.1667 35.75,21.2333 35.75,20.0833 C35.75,18.9333 34.8167,18 33.6667,18 M23.25,22.1667 C22.1,22.1667 21.1667,23.1 21.1667,24.25 C21.1667,25.4 22.1,26.3333 23.25,26.3333 C24.4,26.3333 25.3333,25.4 25.3333,24.25 C25.3333,23.1 24.4,22.1667 23.25,22.1667 M44.0833,22.1667 C42.9333,22.1667 42,23.1 42,24.25 C42,25.4 42.9333,26.3333 44.0833,26.3333 C45.2333,26.3333 46.1667,25.4 46.1667,24.25 C46.1667,23.1 45.2333,22.1667 44.0833,22.1667 M33.6667,26.3333 C29.0625,26.3333 25.3333,30.0625 25.3333,34.6667 C25.3333,39.2708 29.0625,43 33.6667,43 C38.2708,43 42,39.2708 42,34.6667 C42,30.0625 38.2708,26.3333 33.6667,26.3333 M19.0833,32.5833 C17.9333,32.5833 17,33.5167 17,34.6667 C17,35.8167 17.9333,36.75 19.0833,36.75 C20.2333,36.75 21.1667,35.8167 21.1667,34.6667 C21.1667,33.5167 20.2333,32.5833 19.0833,32.5833 M48.25,32.5833 C47.1,32.5833 46.1667,33.5167 46.1667,34.6667 C46.1667,35.8167 47.1,36.75 48.25,36.75 C49.4,36.75 50.3333,35.8167 50.3333,34.6667 C50.3333,33.5167 49.4,32.5833 48.25,32.5833 M23.25,43 C22.1,43 21.1667,43.9333 21.1667,45.0833 C21.1667,46.2333 22.1,47.1667 23.25,47.1667 C24.4,47.1667 25.3333,46.2333 25.3333,45.0833 C25.3333,43.9333 24.4,43 23.25,43 M44.0833,43 C42.9333,43 42,43.9333 42,45.0833 C42,46.2333 42.9333,47.1667 44.0833,47.1667 C45.2333,47.1667 46.1667,46.2333 46.1667,45.0833 C46.1667,43.9333 45.2333,43 44.0833,43 M33.6667,47.1667 C32.5167,47.1667 31.5833,48.1 31.5833,49.25 C31.5833,50.4 32.5167,51.3333 33.6667,51.3333 C34.8167,51.3333 35.75,50.4 35.75,49.25 C35.75,48.1 34.8167,47.1667 33.6667,47.1667 " fill="#000000" style="stroke: ; stroke-width: 0.0; stroke-dasharray: ;"/><!--link sun to cloud--><path d="M61.0586,34.5 C68.1546,34.5 75.2507,34.5 82.3467,34.5 " fill="none" id="sun-cloud" style="stroke: #383838; stroke-width: 1.0;"/><polygon fill="#383838" points="90.6768,34.5,82.6768,31.5,82.6768,37.5,90.6768,34.5" style="stroke: #383838; stroke-width: 1.0;"/><!--link cloud to cloudy--><path d="M146.0586,34.5 C153.1546,34.5 160.2507,34.5 167.3467,34.5 " fill="none" id="cloud-cloudy" style="stroke: #383838; stroke-width: 1.0;"/><polygon fill="#383838" points="175.6768,34.5,167.6768,31.5,167.6768,37.5,175.6768,34.5" style="stroke: #383838; stroke-width: 1.0;"/><!--
@startuml icons-transparent
skinparam monochrome true
skinparam Nodesep 30
skinparam Ranksep 10
rectangle "<size:50><&cloud></size>" as cloud
rectangle "<size:50><&cloudy></size>" as cloudy
rectangle "<size:50><&sun></size>" as sun

sun ->> cloud
cloud ->> cloudy
skinparam rectangleBorderColor none
skinparam rectangleBackgroundColor none
skinparam rectangleShadowing false
@enduml

PlantUML version 1.2018.05(Sat May 05 20:00:17 GMT 2018)
(GPL source distribution)
Java Runtime: Java(TM) SE Runtime Environment
JVM: Java HotSpot(TM) 64-Bit Server VM
Java Version: 1.8.0_161-b12
Operating System: Linux
OS Version: 4.9.125-linuxkit
Default Encoding: ANSI_X3.4-1968
Language: en
Country: US
--></g></svg>