<?xml version="1.0" encoding="UTF-8" standalone="no"?><svg xmlns="http://www.w3.org/2000/svg" xmlns:xlink="http://www.w3.org/1999/xlink" contentScriptType="application/ecmascript" contentStyleType="text/css" height="85px" preserveAspectRatio="none" style="width:239px;height:85px;" version="1.1" viewBox="0 0 239 85" width="239px" zoomAndPan="magnify"><defs><filter height="300%" id="fv9bpc35whobn" width="300%" x="-1" y="-1"><feGaussianBlur result="blurOut" stdDeviation="2.0"/><feColorMatrix in="blurOut" result="blurOut2" type="matrix" values="0 0 0 0 0 0 0 0 0 0 0 0 0 0 0 0 0 0 .4 0"/><feOffset dx="4.0" dy="4.0" in="blurOut2" result="blurOut3"/><feBlend in="SourceGraphic" in2="blurOut3" mode="normal"/></filter></defs><g><!--entity <&key> key--><rect fill="#F8F8F8" filter="url(#fv9bpc35whobn)" height="22.29" style="stroke: #000000; stroke-width: 1.5;" width="58.3333" x="6" y="8"/><path d="M23.4167,14.4567 C21.8067,14.4567 20.5,15.7634 20.5,17.3734 C20.5,17.56 20.5385,17.7199 20.5735,17.8844 L17,21.4579 L17,23.7912 L20.5,23.7912 L20.5,21.4579 L22.8333,21.4579 L22.8333,20.2912 L22.9068,20.2177 C23.0702,20.2527 23.23,20.2912 23.4178,20.2912 C25.0278,20.2912 26.3345,18.9845 26.3345,17.3745 C26.3345,15.7645 25.0278,14.4579 23.4178,14.4579 M24.0012,15.6245 C24.6428,15.6245 25.1678,16.1495 25.1678,16.7912 C25.1678,17.4329 24.6428,17.9579 24.0012,17.9579 C23.3595,17.9579 22.8345,17.4329 22.8345,16.7912 C22.8345,16.1495 23.3595,15.6245 24.0012,15.6245 " fill="#000000" style="stroke: ; stroke-width: 0.0; stroke-dasharray: ;"/><text fill="#000000" font-family="sans-serif" font-size="14" lengthAdjust="spacingAndGlyphs" textLength="23" x="31.3333" y="24.3027">key</text><!--entity <&check> check--><rect fill="#F8F8F8" filter="url(#fv9bpc35whobn)" height="22.29" style="stroke: #000000; stroke-width: 1.5;" width="74.3333" x="74" y="8"/><path d="M92.4737,15.6234 L91.6348,16.426 L88.3903,19.6705 L87.4792,18.7594 L86.6403,17.9567 L85,19.597 L85.8027,20.4359 L87.5527,22.1859 L88.3915,22.9885 L89.2303,22.1859 L93.3137,18.1025 L94.1163,17.2637 L92.476,15.6234 " fill="#000000" style="stroke: ; stroke-width: 0.0; stroke-dasharray: ;"/><text fill="#000000" font-family="sans-serif" font-size="14" lengthAdjust="spacingAndGlyphs" textLength="39" x="99.3333" y="24.3027">check</text><!--entity <&clock> clock--><rect fill="#F8F8F8" filter="url(#fv9bpc35whobn)" height="22.29" style="stroke: #000000; stroke-width: 1.5;" width="70.3333" x="158" y="8"/><path d="M173.6667,14.4567 C171.0965,14.4567 169,16.5532 169,19.1234 C169,21.6935 171.0965,23.79 173.6667,23.79 C176.2368,23.79 178.3333,21.6935 178.3333,19.1234 C178.3333,16.5532 176.2368,14.4567 173.6667,14.4567 M173.6667,15.6234 C175.6068,15.6234 177.1667,17.1832 177.1667,19.1234 C177.1667,21.0635 175.6068,22.6234 173.6667,22.6234 C171.7265,22.6234 170.1667,21.0635 170.1667,19.1234 C170.1667,17.1832 171.7265,15.6234 173.6667,15.6234 M173.0833,16.79 L173.0833,19.3789 L173.2653,19.5247 L173.8487,20.108 L174.25,20.5455 L175.0888,19.7067 L174.6513,19.3054 L174.25,18.904 L174.25,16.7889 L173.0833,16.7889 " fill="#000000" style="stroke: ; stroke-width: 0.0; stroke-dasharray: ;"/><text fill="#000000" font-family="sans-serif" font-size="14" lengthAdjust="spacingAndGlyphs" textLength="35" x="183.3333" y="24.3027">clock</text><!--entity <&tag> tag--><rect fill="#F8F8F8" filter="url(#fv9bpc35whobn)" height="22.29" style="stroke: #000000; stroke-width: 1.5;" width="57.3333" x="6.5" y="46"/><path d="M17.5,52.4567 L17.5,55.9567 L23.3333,61.79 L26.8333,58.29 L21,52.4567 L17.5,52.4567 M19.8333,53.6234 C20.475,53.6234 21,54.1484 21,54.79 C21,55.4317 20.475,55.9567 19.8333,55.9567 C19.1917,55.9567 18.6667,55.4317 18.6667,54.79 C18.6667,54.1484 19.1917,53.6234 19.8333,53.6234 " fill="#000000" style="stroke: ; stroke-width: 0.0; stroke-dasharray: ;"/><text fill="#000000" font-family="sans-serif" font-size="14" lengthAdjust="spacingAndGlyphs" textLength="22" x="31.8333" y="62.3027">tag</text><!--entity <size:42><&wrench></size>--><rect fill="#F8F8F8" filter="url(#fv9bpc35whobn)" height="34" style="stroke: #000000; stroke-width: 1.5;" width="50" x="74" y="40"/><path d="M104.25,43 C99.42,43 95.5,46.92 95.5,51.75 C95.5,52.87 95.773,53.941 96.158,54.921 L85.987,64.9835 C84.622,66.3485 84.622,68.5395 85.987,69.9045 C86.687,70.6045 87.5935,71 88.5035,71 C89.4135,71 90.32,70.6815 91.02,70.0165 L101.0825,59.954 C102.0625,60.304 103.1335,60.5 104.2535,60.5 C109.0835,60.5 113.0035,56.58 113.0035,51.75 C113.0035,51.19 112.8915,50.7105 112.783,50.217 L109.5,53.5 L102.5,53.5 L102.5,46.5 L105.783,43.217 C105.293,43.112 104.8135,43 104.25,42.9965 M88.5,65.7465 C89.48,65.7465 90.25,66.5165 90.25,67.4965 C90.25,68.4765 89.48,69.2465 88.5,69.2465 C87.52,69.2465 86.75,68.4765 86.75,67.4965 C86.75,66.5165 87.52,65.7465 88.5,65.7465 " fill="#000000" style="stroke: ; stroke-width: 0.0; stroke-dasharray: ;"/><!--link <&key> key to <&check> check--><!--link <&check> check to <&clock> clock--><!--link <&key> key to <&tag> tag--><!--link <&tag> tag to <size:42><&wrench></size>--><!--
@startuml icons
skinparam monochrome true
skinparam Nodesep 10
skinparam Ranksep 10
card "<&key> key"
card "<&check> check"
card "<&clock> clock"
card "<&tag> tag"
card "<size:42><&wrench></size>"
@enduml

PlantUML version 1.2018.05(Sat May 05 20:00:17 GMT 2018)
(GPL source distribution)
Java Runtime: Java(TM) SE Runtime Environment
JVM: Java HotSpot(TM) 64-Bit Server VM
Java Version: 1.8.0_161-b12
Operating System: Linux
OS Version: 4.9.87-linuxkit-aufs
Default Encoding: ANSI_X3.4-1968
Language: en
Country: US
--></g></svg>