<?xml version="1.0" encoding="UTF-8" standalone="no"?><svg xmlns="http://www.w3.org/2000/svg" xmlns:xlink="http://www.w3.org/1999/xlink" contentScriptType="application/ecmascript" contentStyleType="text/css" height="135px" preserveAspectRatio="none" style="width:289px;height:135px;" version="1.1" viewBox="0 0 289 135" width="289px" zoomAndPan="magnify"><defs><filter height="300%" id="fzxx8ckxiq57x" width="300%" x="-1" y="-1"><feGaussianBlur result="blurOut" stdDeviation="2.0"/><feColorMatrix in="blurOut" result="blurOut2" type="matrix" values="0 0 0 0 0 0 0 0 0 0 0 0 0 0 0 0 0 0 .4 0"/><feOffset dx="4.0" dy="4.0" in="blurOut2" result="blurOut3"/><feBlend in="SourceGraphic" in2="blurOut3" mode="normal"/></filter></defs><g><!--entity <&key> key--><rect fill="#F8F8F8" filter="url(#fzxx8ckxiq57x)" height="22.29" style="stroke: #000000; stroke-width: 1.5;" width="58.3333" x="6" y="8"/><path d="M23.4167,14.4567 C21.8067,14.4567 20.5,15.7634 20.5,17.3734 C20.5,17.56 20.5385,17.7199 20.5735,17.8844 L17,21.4579 L17,23.7912 L20.5,23.7912 L20.5,21.4579 L22.8333,21.4579 L22.8333,20.2912 L22.9068,20.2177 C23.0702,20.2527 23.23,20.2912 23.4178,20.2912 C25.0278,20.2912 26.3345,18.9845 26.3345,17.3745 C26.3345,15.7645 25.0278,14.4579 23.4178,14.4579 M24.0012,15.6245 C24.6428,15.6245 25.1678,16.1495 25.1678,16.7912 C25.1678,17.4329 24.6428,17.9579 24.0012,17.9579 C23.3595,17.9579 22.8345,17.4329 22.8345,16.7912 C22.8345,16.1495 23.3595,15.6245 24.0012,15.6245 " fill="#000000" style="stroke: ; stroke-width: 0.0; stroke-dasharray: ;"/><text fill="#000000" font-family="sans-serif" font-size="14" lengthAdjust="spacingAndGlyphs" textLength="23" x="31.3333" y="24.3027">key</text><!--entity <&check> check--><rect fill="#F8F8F8" filter="url(#fzxx8ckxiq57x)" height="22.29" style="stroke: #000000; stroke-width: 1.5;" width="74.3333" x="99" y="8"/><path d="M117.4737,15.6234 L116.6348,16.426 L113.3903,19.6705 L112.4792,18.7594 L111.6403,17.9567 L110,19.597 L110.8027,20.4359 L112.5527,22.1859 L113.3915,22.9885 L114.2303,22.1859 L118.3137,18.1025 L119.1163,17.2637 L117.476,15.6234 " fill="#000000" style="stroke: ; stroke-width: 0.0; stroke-dasharray: ;"/><text fill="#000000" font-family="sans-serif" font-size="14" lengthAdjust="spacingAndGlyphs" textLength="39" x="124.3333" y="24.3027">check</text><!--entity <&clock> clock--><rect fill="#F8F8F8" filter="url(#fzxx8ckxiq57x)" height="22.29" style="stroke: #000000; stroke-width: 1.5;" width="70.3333" x="208" y="8"/><path d="M223.6667,14.4567 C221.0965,14.4567 219,16.5532 219,19.1234 C219,21.6935 221.0965,23.79 223.6667,23.79 C226.2368,23.79 228.3333,21.6935 228.3333,19.1234 C228.3333,16.5532 226.2368,14.4567 223.6667,14.4567 M223.6667,15.6234 C225.6068,15.6234 227.1667,17.1832 227.1667,19.1234 C227.1667,21.0635 225.6068,22.6234 223.6667,22.6234 C221.7265,22.6234 220.1667,21.0635 220.1667,19.1234 C220.1667,17.1832 221.7265,15.6234 223.6667,15.6234 M223.0833,16.79 L223.0833,19.3789 L223.2653,19.5247 L223.8487,20.108 L224.25,20.5455 L225.0888,19.7067 L224.6513,19.3054 L224.25,18.904 L224.25,16.7889 L223.0833,16.7889 " fill="#000000" style="stroke: ; stroke-width: 0.0; stroke-dasharray: ;"/><text fill="#000000" font-family="sans-serif" font-size="14" lengthAdjust="spacingAndGlyphs" textLength="35" x="233.3333" y="24.3027">clock</text><!--entity <&tag> tag--><rect fill="#F8F8F8" filter="url(#fzxx8ckxiq57x)" height="22.29" style="stroke: #000000; stroke-width: 1.5;" width="57.3333" x="6.5" y="96"/><path d="M17.5,102.4567 L17.5,105.9567 L23.3333,111.79 L26.8333,108.29 L21,102.4567 L17.5,102.4567 M19.8333,103.6234 C20.475,103.6234 21,104.1484 21,104.79 C21,105.4317 20.475,105.9567 19.8333,105.9567 C19.1917,105.9567 18.6667,105.4317 18.6667,104.79 C18.6667,104.1484 19.1917,103.6234 19.8333,103.6234 " fill="#000000" style="stroke: ; stroke-width: 0.0; stroke-dasharray: ;"/><text fill="#000000" font-family="sans-serif" font-size="14" lengthAdjust="spacingAndGlyphs" textLength="22" x="31.8333" y="112.3027">tag</text><!--entity <size:42><&wrench></size>--><rect fill="#F8F8F8" filter="url(#fzxx8ckxiq57x)" height="34" style="stroke: #000000; stroke-width: 1.5;" width="50" x="99" y="90"/><path d="M129.25,93 C124.42,93 120.5,96.92 120.5,101.75 C120.5,102.87 120.773,103.941 121.158,104.921 L110.987,114.9835 C109.622,116.3485 109.622,118.5395 110.987,119.9045 C111.687,120.6045 112.5935,121 113.5035,121 C114.4135,121 115.32,120.6815 116.02,120.0165 L126.0825,109.954 C127.0625,110.304 128.1335,110.5 129.2535,110.5 C134.0835,110.5 138.0035,106.58 138.0035,101.75 C138.0035,101.19 137.8915,100.7105 137.783,100.217 L134.5,103.5 L127.5,103.5 L127.5,96.5 L130.783,93.217 C130.293,93.112 129.8135,93 129.25,92.9965 M113.5,115.7465 C114.48,115.7465 115.25,116.5165 115.25,117.4965 C115.25,118.4765 114.48,119.2465 113.5,119.2465 C112.52,119.2465 111.75,118.4765 111.75,117.4965 C111.75,116.5165 112.52,115.7465 113.5,115.7465 " fill="#000000" style="stroke: ; stroke-width: 0.0; stroke-dasharray: ;"/><!--link <&key> key to <&check> check--><!--link <&check> check to <&clock> clock--><!--link <&key> key to <&tag> tag--><!--link <&tag> tag to <size:42><&wrench></size>--><!--
@startuml icons
skinparam monochrome true
card "<&key> key"
card "<&check> check"
card "<&clock> clock"
card "<&tag> tag"
card "<size:42><&wrench></size>"
@enduml

PlantUML version 1.2018.05(Sat May 05 20:00:17 GMT 2018)
(GPL source distribution)
Java Runtime: Java(TM) SE Runtime Environment
JVM: Java HotSpot(TM) 64-Bit Server VM
Java Version: 1.8.0_161-b12
Operating System: Linux
OS Version: 4.9.87-linuxkit-aufs
Default Encoding: ANSI_X3.4-1968
Language: en
Country: US
--></g></svg>