<?xml version="1.0" encoding="UTF-8" standalone="no"?><svg xmlns="http://www.w3.org/2000/svg" xmlns:xlink="http://www.w3.org/1999/xlink" contentScriptType="application/ecmascript" contentStyleType="text/css" height="131px" preserveAspectRatio="none" style="width:279px;height:131px;" version="1.1" viewBox="0 0 279 131" width="279px" zoomAndPan="magnify"><defs><filter height="300%" id="f1a84bi6ce92yj" width="300%" x="-1" y="-1"><feGaussianBlur result="blurOut" stdDeviation="2.0"/><feColorMatrix in="blurOut" result="blurOut2" type="matrix" values="0 0 0 0 0 0 0 0 0 0 0 0 0 0 0 0 0 0 .4 0"/><feOffset dx="4.0" dy="4.0" in="blurOut2" result="blurOut3"/><feBlend in="SourceGraphic" in2="blurOut3" mode="normal"/></filter></defs><g><!--entity node--><polygon fill="#F8F8F8" filter="url(#f1a84bi6ce92yj)" points="6,18,16,8,94,8,94,109.1602,84,119.1602,6,119.1602,6,18" style="stroke: #000000; stroke-width: 1.5;"/><line style="stroke: #000000; stroke-width: 1.5;" x1="84" x2="93" y1="18" y2="9"/><line style="stroke: #000000; stroke-width: 1.5;" x1="6" x2="84" y1="18" y2="18"/><line style="stroke: #000000; stroke-width: 1.5;" x1="84" x2="84" y1="18" y2="119.1602"/><text fill="#000000" font-family="sans-serif" font-size="14" lengthAdjust="spacingAndGlyphs" textLength="48" x="21" y="41.3027">several</text><text fill="#000000" font-family="sans-serif" font-size="14" lengthAdjust="spacingAndGlyphs" textLength="32" x="21" y="57.5928">lines</text><line style="stroke: #000000; stroke-width: 1.0;" x1="6" x2="84" y1="60.5801" y2="60.5801"/><line style="stroke: #000000; stroke-width: 1.0;" x1="84" x2="94" y1="60.5801" y2="50.5801"/><line style="stroke: #000000; stroke-width: 1.0;" x1="6" x2="84" y1="62.5801" y2="62.5801"/><line style="stroke: #000000; stroke-width: 1.0;" x1="84" x2="94" y1="62.5801" y2="52.5801"/><text fill="#000000" font-family="sans-serif" font-size="14" lengthAdjust="spacingAndGlyphs" textLength="14" x="27" y="77.8828">of</text><line style="stroke: #000000; stroke-width: 1.0; stroke-dasharray: 1.0,2.0;" x1="6" x2="84" y1="84.8701" y2="84.8701"/><line style="stroke: #000000; stroke-width: 1.0; stroke-dasharray: 1.0,2.0;" x1="84" x2="94" y1="84.8701" y2="74.8701"/><text fill="#000000" font-family="sans-serif" font-size="14" lengthAdjust="spacingAndGlyphs" textLength="27" x="27" y="102.1729">text</text><!--entity cloud--><path d="M132,28 C132,25 134,23 137,23 C140,23 142,25 142,28 C142,25 144,23 147,23 C150,23 152,25 152,28 C152,25 154,23 157,23 C160,23 162,25 162,28 C162,25 164,23 167,23 C170,23 172,25 172,28 C172,25 174,23 177,23 C180,23 182,25 182,28 C182,25 184,23 187,23 C190,23 192,25 192,28 C192,25 194,23 197,23 C200,23 202,25 202,28 C202,25 204,23 207,23 C210,23 212,25 212,28 C212,25 214,23 217,23 C220,23 222,25 222,28 C222,25 224,23 227,23 C230,23 232,25 232,28 C232,25 234,23 237,23 C240,23 242,25 242,28 C242,25 244,23 247,23 C250,23 252,25 252,28 C252,25 254,23 257,23 C260,23 262,25 262,28 C265,28 267,30 267,33 C267,36 265,38 262,38 C265,38 267,40 267,43 C267,46 265,48 262,48 C265,48 267,50 267,53 C267,56 265,58 262,58 C265,58 267,60 267,63 C267,66 265,68 262,68 C265,68 267,70 267,73 C267,76 265,78 262,78 C265,78 267,80 267,83 C267,86 265,88 262,88 C265,88 267,90 267,93 C267,96 265,98 262,98 C262,101 259,103 257,103 C254,103 252,101 252,98 C252,101 249,103 247,103 C244,103 242,101 242,98 C242,101 239,103 237,103 C234,103 232,101 232,98 C232,101 229,103 227,103 C224,103 222,101 222,98 C222,101 219,103 217,103 C214,103 212,101 212,98 C212,101 209,103 207,103 C204,103 202,101 202,98 C202,101 199,103 197,103 C194,103 192,101 192,98 C192,101 189,103 187,103 C184,103 182,101 182,98 C182,101 179,103 177,103 C174,103 172,101 172,98 C172,101 169,103 167,103 C164,103 162,101 162,98 C162,101 159,103 157,103 C154,103 152,101 152,98 C152,101 149,103 147,103 C144,103 142,101 142,98 C142,101 139,103 137,103 C134,103 132,101 132,98 C129,98 127,96 127,93 C127,90 129,88 132,88 C129,88 127,86 127,83 C127,80 129,78 132,78 C129,78 127,76 127,73 C127,70 129,68 132,68 C129,68 127,66 127,63 C127,60 129,58 132,58 C129,58 127,56 127,53 C127,50 129,48 132,48 C129,48 127,46 127,43 C127,40 129,38 132,38 C129,38 127,36 127,33 C127,30 129,28 132,28 " fill="#F8F8F8" filter="url(#f1a84bi6ce92yj)" style="stroke: #000000; stroke-width: 1.5;"/><text fill="#000000" font-family="sans-serif" font-size="14" lengthAdjust="spacingAndGlyphs" textLength="73" x="139" y="44.3027">also works</text><line style="stroke: #000000; stroke-width: 1.0;" x1="130" x2="258" y1="47.29" y2="47.29"/><text fill="#000000" font-family="sans-serif" font-size="14" lengthAdjust="spacingAndGlyphs" textLength="67" x="145" y="64.5928">in a cloud</text><line style="stroke: #000000; stroke-width: 1.0;" x1="130" x2="143" y1="79.7251" y2="79.7251"/><line style="stroke: #000000; stroke-width: 1.0;" x1="130" x2="143" y1="81.7251" y2="81.7251"/><text fill="#000000" font-family="sans-serif" font-size="14" lengthAdjust="spacingAndGlyphs" textLength="102" x="143" y="84.3828">with inline text</text><line style="stroke: #000000; stroke-width: 1.0;" x1="245" x2="258" y1="79.7251" y2="79.7251"/><line style="stroke: #000000; stroke-width: 1.0;" x1="245" x2="258" y1="81.7251" y2="81.7251"/><!--
@startuml multiline
skinparam monochrome true
node node [
several
lines
====
of
....
text
]

cloud cloud [
also works
- - - -
in a cloud
==with inline text==
]
@enduml

PlantUML version 1.2018.05(Sat May 05 20:00:17 GMT 2018)
(GPL source distribution)
Java Runtime: Java(TM) SE Runtime Environment
JVM: Java HotSpot(TM) 64-Bit Server VM
Java Version: 1.8.0_161-b12
Operating System: Linux
OS Version: 4.9.125-linuxkit
Default Encoding: ANSI_X3.4-1968
Language: en
Country: US
--></g></svg>